<svg width="60" height="60" viewBox="0 0 60 60" fill="none" xmlns="http://www.w3.org/2000/svg">
<path d="M50.4882 46.9536H9.51343C8.18158 46.9521 6.90473 46.4223 5.96301 45.4805C5.02129 44.5387 4.49163 43.2618 4.49023 41.9299V16.6243C4.49163 15.2925 5.02129 14.0156 5.96301 13.0738C6.90473 12.1319 8.18158 11.6022 9.51343 11.6006H50.4882C51.82 11.6022 53.0969 12.1319 54.0386 13.0738C54.9803 14.0156 55.51 15.2925 55.5114 16.6243V41.9299C55.51 43.2618 54.9803 44.5387 54.0386 45.4805C53.0969 46.4223 51.82 46.9521 50.4882 46.9536ZM9.51343 13.5206C8.69061 13.5215 7.90174 13.8488 7.31995 14.4307C6.73817 15.0126 6.411 15.8015 6.41023 16.6243V41.9299C6.411 42.7527 6.73817 43.5417 7.31995 44.1235C7.90174 44.7054 8.69061 45.0327 9.51343 45.0336H50.4882C51.311 45.0327 52.0999 44.7054 52.6816 44.1235C53.2634 43.5417 53.5906 42.7527 53.5914 41.9299V16.6243C53.5906 15.8015 53.2634 15.0126 52.6816 14.4307C52.0999 13.8488 51.311 13.5215 50.4882 13.5206H9.51343Z" fill="black"/>
<path d="M30 34.9263C29.766 34.9264 29.54 34.8411 29.3645 34.6863L6.22852 14.2632L7.49908 12.8232L30 32.6876L52.502 12.8256L53.7725 14.2656L30.6365 34.6887C30.4605 34.843 30.2341 34.9276 30 34.9263Z" fill="black"/>
<path d="M5.70703 43.9385L21.2496 26.2294L22.6934 27.4966L7.15087 45.2057L5.70703 43.9385Z" fill="black"/>
<path d="M37.3555 27.4784L38.7993 26.2112L54.3422 43.9206L52.8983 45.1878L37.3555 27.4784Z" fill="black"/>
</svg>
