<svg width="60" height="60" viewBox="0 0 60 60" fill="none" xmlns="http://www.w3.org/2000/svg">
<path d="M30.0522 2.55566H30.0006C22.722 2.55566 15.7416 5.44708 10.5948 10.5938C5.44805 15.7406 2.55664 22.7211 2.55664 29.9997C2.55664 37.2783 5.44805 44.2588 10.5948 49.4055C15.7416 54.5522 22.722 57.4437 30.0006 57.4437C30.2393 57.4437 30.4683 57.3488 30.637 57.1801C30.8058 57.0113 30.9006 56.7824 30.9006 56.5437C30.9006 56.305 30.8058 56.076 30.637 55.9073C30.4683 55.7385 30.2393 55.6437 30.0006 55.6437C23.1994 55.6437 16.6768 52.9419 11.8676 48.1327C7.05841 43.3235 4.35664 36.8009 4.35664 29.9997C4.35664 23.1985 7.05841 16.6758 11.8676 11.8666C16.6768 7.05743 23.1994 4.35566 30.0006 4.35566H30.0492C34.7312 4.36489 39.3214 5.65562 43.322 8.08793C47.3227 10.5202 50.5811 14.0013 52.7442 18.1537C54.9072 22.3061 55.8922 26.9714 55.5925 31.6438C55.2928 36.3162 53.7197 40.8175 51.0438 44.6595C50.648 45.2255 50.1327 45.6975 49.5342 46.0423C48.9357 46.387 48.2688 46.596 47.5806 46.6545C46.8788 46.7161 46.1721 46.6232 45.51 46.3824C44.848 46.1416 44.2467 45.7587 43.7484 45.2607L42.9006 44.4099C43.227 44.2149 43.548 44.0067 43.8606 43.7823C44.4909 43.3404 45.0814 42.8443 45.6252 42.2997H45.6282C46.0918 41.8293 46.3508 41.1949 46.3489 40.5345C46.347 39.8741 46.0843 39.2411 45.618 38.7735L40.9572 34.1181C40.4889 33.6509 39.8544 33.3886 39.1929 33.3886C38.5315 33.3886 37.897 33.6509 37.4286 34.1181L36.7326 34.8117C36.5038 35.0388 36.2527 35.2424 35.9832 35.4195C35.0885 35.998 34.0228 36.2532 32.9631 36.1426C31.9034 36.032 30.9133 35.5624 30.1572 34.8117L24.0666 28.7211C23.4942 28.143 23.1735 27.362 23.1747 26.5484C23.1758 25.7349 23.4986 24.9548 24.0726 24.3783L25.8822 22.5597C26.1145 22.3286 26.2988 22.0539 26.4246 21.7514C26.5504 21.4489 26.6152 21.1245 26.6152 20.7969C26.6152 20.4692 26.5504 20.1448 26.4246 19.8423C26.2988 19.5398 26.1145 19.2651 25.8822 19.0341L21.2292 14.3817C20.9989 14.1478 20.7241 13.9623 20.4211 13.8361C20.1181 13.7099 19.7929 13.6455 19.4646 13.6467C18.8386 13.6443 18.2352 13.8803 17.7768 14.3067C17.749 14.3284 17.7226 14.3519 17.6976 14.3769C17.1573 14.9179 16.6635 15.5036 16.2216 16.1277C14.4995 18.5284 13.5926 21.4181 13.6341 24.3724C13.6756 27.3267 14.6632 30.1898 16.452 32.5413C19.5932 36.7046 23.3004 40.4088 27.4662 43.5465C29.8754 45.3724 32.8145 46.3625 35.8374 46.3665C37.6835 46.3644 39.5101 45.9899 41.208 45.2655L42.4752 46.5345C43.1583 47.22 43.9839 47.7468 44.8934 48.0776C45.8028 48.4084 46.7739 48.535 47.7378 48.4485C48.6885 48.3671 49.6096 48.0777 50.436 47.6007C51.2624 47.1237 51.9738 46.4709 52.5198 45.6885C55.384 41.5769 57.0679 36.7598 57.3889 31.7593C57.71 26.7588 56.6559 21.7658 54.3411 17.3218C52.0262 12.8777 48.5389 9.15226 44.2572 6.54928C39.9756 3.9463 35.063 2.56518 30.0522 2.55566ZM28.5522 42.1089C24.5199 39.0737 20.9315 35.49 17.8908 31.4619C16.4463 29.5616 15.6003 27.2742 15.4608 24.8912C15.3212 22.5083 15.8944 20.1378 17.1072 18.0819L20.439 21.4143C20.6079 21.5831 20.8369 21.678 21.0756 21.678C21.3144 21.678 21.5434 21.5831 21.7122 21.4143C21.8811 21.2454 21.9759 21.0164 21.9759 20.7777C21.9759 20.5389 21.8811 20.3099 21.7122 20.1411L18.1512 16.5777C18.3912 16.2777 18.6432 15.9879 18.9138 15.7131C18.9379 15.6943 18.9609 15.6743 18.9828 15.6531C19.1138 15.527 19.2887 15.457 19.4705 15.4576C19.6522 15.4583 19.8266 15.5297 19.9566 15.6567L24.6126 20.3127C24.6776 20.3772 24.729 20.4539 24.764 20.5385C24.7991 20.6231 24.8169 20.7137 24.8166 20.8053C24.8165 20.8955 24.7984 20.9848 24.7634 21.0679C24.7284 21.151 24.6771 21.2264 24.6126 21.2895L22.7916 23.1159C21.8839 24.0307 21.3745 25.2672 21.3745 26.556C21.3745 27.8447 21.8839 29.0812 22.7916 29.9961L28.8846 36.0843C29.8436 37.035 31.0757 37.6623 32.4086 37.8786C33.7416 38.095 35.1088 37.8895 36.3192 37.2909L39.9792 40.9509C40.149 41.1148 40.3763 41.2055 40.6123 41.2035C40.8483 41.2014 41.074 41.1068 41.2409 40.9399C41.4077 40.773 41.5024 40.5473 41.5044 40.3113C41.5065 40.0753 41.4158 39.848 41.2518 39.6783L37.8246 36.2511C37.8846 36.1959 37.95 36.1437 38.0046 36.0867L38.7006 35.3877C38.8312 35.2574 39.0082 35.1842 39.1926 35.1842C39.3771 35.1842 39.554 35.2574 39.6846 35.3877L44.3454 40.0431C44.4757 40.1736 44.5493 40.3502 44.5502 40.5347C44.5511 40.7191 44.4792 40.8965 44.3502 41.0283C43.8788 41.5 43.3668 41.9295 42.8202 42.3117C40.733 43.8093 38.2203 44.5978 35.6516 44.5613C33.0829 44.5248 30.5937 43.6652 28.5498 42.1089H28.5522Z" fill="black"/>
</svg>
