<svg width="23" height="22" viewBox="0 0 23 22" fill="none" xmlns="http://www.w3.org/2000/svg">
<g clip-path="url(#clip0_2020_2877)">
<path d="M5.57889 8.95039C6.43397 6.35938 8.866 4.49883 11.7535 4.49883C13.3047 4.49883 14.7012 5.04883 15.8055 5.94687L18.998 2.75C17.0516 1.04844 14.5508 0 11.7492 0C7.41366 0 3.67968 2.475 1.88788 6.09727L5.57889 8.95039Z" fill="#EA4335"/>
<path d="M15.4531 16.5129C14.452 17.1574 13.1844 17.5012 11.7492 17.5012C8.87462 17.5012 6.45118 15.6535 5.58751 13.0797L1.88361 15.8899C3.6754 19.5207 7.40939 22 11.7492 22C14.4391 22 17.0086 21.0461 18.9293 19.25L15.4531 16.5129Z" fill="#34A853"/>
<path d="M18.9293 19.25C20.9402 17.3723 22.2465 14.5793 22.2465 11C22.2465 10.3512 22.1476 9.65078 21.9973 9.00195H11.7492V13.2516H17.6488C17.3566 14.6824 16.5746 15.7867 15.4531 16.5129L18.9293 19.25Z" fill="#4A90E2"/>
<path d="M5.58749 13.0797C5.36835 12.4266 5.24803 11.7305 5.24803 11C5.24803 10.2824 5.36405 9.59495 5.5746 8.95042L1.88358 6.09729C1.14882 7.57112 0.749207 9.23401 0.749207 11C0.749207 12.7574 1.15741 14.4203 1.88358 15.8899L5.58749 13.0797Z" fill="#FBBC05"/>
</g>
<defs>
<clipPath id="clip0_2020_2877">
<rect width="22" height="22" fill="white" transform="translate(0.5)"/>
</clipPath>
</defs>
</svg>
