<svg width="644" height="888" viewBox="0 0 644 888" fill="none" xmlns="http://www.w3.org/2000/svg">
<path d="M1.72949 1H642.729" stroke="black" stroke-width="2" stroke-linecap="round" stroke-dasharray="10 10"/>
<path d="M1.72949 25.571H642.729" stroke="black" stroke-width="2" stroke-linecap="round" stroke-dasharray="10 10"/>
<path d="M1.72949 51.5872H642.729" stroke="black" stroke-width="2" stroke-linecap="round" stroke-dasharray="10 10"/>
<path d="M1.72949 76.1582H642.729" stroke="black" stroke-width="2" stroke-linecap="round" stroke-dasharray="10 10"/>
<path d="M1.72949 102.175H642.729" stroke="black" stroke-width="2" stroke-linecap="round" stroke-dasharray="10 10"/>
<path d="M1.72949 126.746H642.729" stroke="black" stroke-width="2" stroke-linecap="round" stroke-dasharray="10 10"/>
<path d="M1.72949 152.762H642.729" stroke="black" stroke-width="2" stroke-linecap="round" stroke-dasharray="10 10"/>
<path d="M1.72949 177.333H642.729" stroke="black" stroke-width="2" stroke-linecap="round" stroke-dasharray="10 10"/>
<path d="M1.72949 203.349H642.729" stroke="black" stroke-width="2" stroke-linecap="round" stroke-dasharray="10 10"/>
<path d="M1.72949 227.92H642.729" stroke="black" stroke-width="2" stroke-linecap="round" stroke-dasharray="10 10"/>
<path d="M1.72949 253.936H642.729" stroke="black" stroke-width="2" stroke-linecap="round" stroke-dasharray="10 10"/>
<path d="M1.72949 278.507H642.729" stroke="black" stroke-width="2" stroke-linecap="round" stroke-dasharray="10 10"/>
<path d="M1.72949 304.524H642.729" stroke="black" stroke-width="2" stroke-linecap="round" stroke-dasharray="10 10"/>
<path d="M1.72949 329.095H642.729" stroke="black" stroke-width="2" stroke-linecap="round" stroke-dasharray="10 10"/>
<path d="M1.72949 355.111H642.729" stroke="black" stroke-width="2" stroke-linecap="round" stroke-dasharray="10 10"/>
<path d="M1.72949 379.682H642.729" stroke="black" stroke-width="2" stroke-linecap="round" stroke-dasharray="10 10"/>
<path d="M1.72949 405.698H642.729" stroke="black" stroke-width="2" stroke-linecap="round" stroke-dasharray="10 10"/>
<path d="M1.72949 430.269H642.729" stroke="black" stroke-width="2" stroke-linecap="round" stroke-dasharray="10 10"/>
<path d="M1.72949 456.285H642.729" stroke="black" stroke-width="2" stroke-linecap="round" stroke-dasharray="10 10"/>
<path d="M1.72949 480.856H642.729" stroke="black" stroke-width="2" stroke-linecap="round" stroke-dasharray="10 10"/>
<path d="M1.72949 506.873H642.729" stroke="black" stroke-width="2" stroke-linecap="round" stroke-dasharray="10 10"/>
<path d="M1.72949 531.444H642.729" stroke="black" stroke-width="2" stroke-linecap="round" stroke-dasharray="10 10"/>
<path d="M1.72949 557.46H642.729" stroke="black" stroke-width="2" stroke-linecap="round" stroke-dasharray="10 10"/>
<path d="M1.72949 583.476H642.729" stroke="black" stroke-width="2" stroke-linecap="round" stroke-dasharray="10 10"/>
<path d="M1.72949 608.047H642.729" stroke="black" stroke-width="2" stroke-linecap="round" stroke-dasharray="10 10"/>
<path d="M1.72949 634.064H642.729" stroke="black" stroke-width="2" stroke-linecap="round" stroke-dasharray="10 10"/>
<path d="M1.72949 658.635H642.729" stroke="black" stroke-width="2" stroke-linecap="round" stroke-dasharray="10 10"/>
<path d="M1.72949 684.651H642.729" stroke="black" stroke-width="2" stroke-linecap="round" stroke-dasharray="10 10"/>
<path d="M1.72949 709.222H642.729" stroke="black" stroke-width="2" stroke-linecap="round" stroke-dasharray="10 10"/>
<path d="M1.72949 735.238H642.729" stroke="black" stroke-width="2" stroke-linecap="round" stroke-dasharray="10 10"/>
<path d="M1.72949 759.809H642.729" stroke="black" stroke-width="2" stroke-linecap="round" stroke-dasharray="10 10"/>
<path d="M1.72949 785.825H642.729" stroke="black" stroke-width="2" stroke-linecap="round" stroke-dasharray="10 10"/>
<path d="M1.72949 810.396H642.729" stroke="black" stroke-width="2" stroke-linecap="round" stroke-dasharray="10 10"/>
<path d="M1.72949 836.413H642.729" stroke="black" stroke-width="2" stroke-linecap="round" stroke-dasharray="10 10"/>
<path d="M1.72949 860.984H642.729" stroke="black" stroke-width="2" stroke-linecap="round" stroke-dasharray="10 10"/>
<path d="M1.72949 887H642.729" stroke="black" stroke-width="2" stroke-linecap="round" stroke-dasharray="10 10"/>
</svg>
