<svg width="30" height="28" viewBox="0 0 30 28" fill="none" xmlns="http://www.w3.org/2000/svg">
<path d="M11.4448 26.5208C12.1159 26.5208 12.66 25.9767 12.66 25.3055C12.66 24.6344 12.1159 24.0903 11.4448 24.0903C10.7736 24.0903 10.2295 24.6344 10.2295 25.3055C10.2295 25.9767 10.7736 26.5208 11.4448 26.5208Z" stroke="black" stroke-width="2" stroke-linecap="round" stroke-linejoin="round"/>
<path d="M24.8129 26.5208C25.4841 26.5208 26.0282 25.9767 26.0282 25.3055C26.0282 24.6344 25.4841 24.0903 24.8129 24.0903C24.1418 24.0903 23.5977 24.6344 23.5977 25.3055C23.5977 25.9767 24.1418 26.5208 24.8129 26.5208Z" stroke="black" stroke-width="2" stroke-linecap="round" stroke-linejoin="round"/>
<path d="M1.72266 1H6.58377L9.84071 17.2726C9.95184 17.8321 10.2562 18.3347 10.7006 18.6924C11.1449 19.0501 11.7009 19.2401 12.2713 19.2292H24.0838C24.6541 19.2401 25.2101 19.0501 25.6545 18.6924C26.0988 18.3347 26.4032 17.8321 26.5143 17.2726L28.4588 7.07639H7.79905" stroke="black" stroke-width="2" stroke-linecap="round" stroke-linejoin="round"/>
</svg>
