<svg width="28" height="25" viewBox="0 0 28 25" fill="none" xmlns="http://www.w3.org/2000/svg">
<path d="M24.7636 2.95882C24.1429 2.33781 23.4059 1.84519 22.5948 1.50909C21.7836 1.17299 20.9142 1 20.0362 1C19.1582 1 18.2887 1.17299 17.4776 1.50909C16.6664 1.84519 15.9295 2.33781 15.3088 2.95882L14.0206 4.24701L12.7324 2.95882C11.4786 1.70502 9.77806 1.00065 8.00493 1.00065C6.2318 1.00065 4.53129 1.70502 3.2775 2.95882C2.02371 4.21261 1.31934 5.91312 1.31934 7.68625C1.31934 9.45938 2.02371 11.1599 3.2775 12.4137L4.5657 13.7019L14.0206 23.1567L23.4754 13.7019L24.7636 12.4137C25.3846 11.793 25.8772 11.056 26.2133 10.2448C26.5494 9.43369 26.7224 8.56427 26.7224 7.68625C26.7224 6.80822 26.5494 5.9388 26.2133 5.12765C25.8772 4.31651 25.3846 3.57953 24.7636 2.95882Z" stroke="black" stroke-width="2" stroke-linecap="round" stroke-linejoin="round"/>
</svg>
