<svg width="38" height="30" viewBox="0 0 38 30" fill="none" xmlns="http://www.w3.org/2000/svg">
<g clip-path="url(#clip0_375_206)">
<path d="M36.5625 20.625H35.625V14.291C35.625 13.5469 35.3262 12.832 34.7988 12.3047L28.9453 6.45117C28.418 5.92383 27.7031 5.625 26.959 5.625H24.375V2.8125C24.375 1.25977 23.1152 0 21.5625 0H6.5625C5.00977 0 3.75 1.25977 3.75 2.8125V5.625H0.46875C0.210938 5.625 0 5.83594 0 6.09375V7.03125C0 7.28906 0.210938 7.5 0.46875 7.5H16.4062C16.6641 7.5 16.875 7.71094 16.875 7.96875V8.90625C16.875 9.16406 16.6641 9.375 16.4062 9.375H2.34375C2.08594 9.375 1.875 9.58594 1.875 9.84375V10.7812C1.875 11.0391 2.08594 11.25 2.34375 11.25H14.5312C14.7891 11.25 15 11.4609 15 11.7188V12.6562C15 12.9141 14.7891 13.125 14.5312 13.125H0.46875C0.210938 13.125 0 13.3359 0 13.5938V14.5312C0 14.7891 0.210938 15 0.46875 15H12.6562C12.9141 15 13.125 15.2109 13.125 15.4688V16.4062C13.125 16.6641 12.9141 16.875 12.6562 16.875H3.75V24.375C3.75 27.4805 6.26953 30 9.375 30C12.4805 30 15 27.4805 15 24.375H22.5C22.5 27.4805 25.0195 30 28.125 30C31.2305 30 33.75 27.4805 33.75 24.375H36.5625C37.0781 24.375 37.5 23.9531 37.5 23.4375V21.5625C37.5 21.0469 37.0781 20.625 36.5625 20.625ZM9.375 27.1875C7.82227 27.1875 6.5625 25.9277 6.5625 24.375C6.5625 22.8223 7.82227 21.5625 9.375 21.5625C10.9277 21.5625 12.1875 22.8223 12.1875 24.375C12.1875 25.9277 10.9277 27.1875 9.375 27.1875ZM28.125 27.1875C26.5723 27.1875 25.3125 25.9277 25.3125 24.375C25.3125 22.8223 26.5723 21.5625 28.125 21.5625C29.6777 21.5625 30.9375 22.8223 30.9375 24.375C30.9375 25.9277 29.6777 27.1875 28.125 27.1875ZM32.8125 15H24.375V8.4375H26.959L32.8125 14.291V15Z" fill="#70665C"/>
</g>
<defs>
<clipPath id="clip0_375_206">
<rect width="37.5" height="30" fill="white"/>
</clipPath>
</defs>
</svg>
