<svg width="31" height="30" viewBox="0 0 31 30" fill="none" xmlns="http://www.w3.org/2000/svg">
<path d="M13 20.625L16.75 21.875C16.75 21.875 26.125 20 27.375 20C28.625 20 28.625 21.25 27.375 22.5C26.125 23.75 21.75 27.5 18 27.5C14.25 27.5 11.75 25.625 9.25 25.625H3" stroke="#70665C" stroke-width="2.5" stroke-linecap="round" stroke-linejoin="round"/>
<path d="M3 18.125C4.25 16.875 6.75 15 9.25 15C11.75 15 17.6875 17.5 18.625 18.75C19.5625 20 16.75 21.875 16.75 21.875M10.5 11.25V6.25C10.5 5.91848 10.6317 5.60054 10.8661 5.36612C11.1005 5.1317 11.4185 5 11.75 5H26.75C27.0815 5 27.3995 5.1317 27.6339 5.36612C27.8683 5.60054 28 5.91848 28 6.25V16.25" stroke="#70665C" stroke-width="2.5" stroke-linecap="round" stroke-linejoin="round"/>
<path d="M16.125 5H22.375V10.625H16.125V5Z" fill="#70665C" stroke="#70665C" stroke-width="2.5" stroke-linecap="round" stroke-linejoin="round"/>
</svg>
