<svg width="30" height="30" viewBox="0 0 30 30" fill="none" xmlns="http://www.w3.org/2000/svg">
<path d="M11.9363 25.9376C13.1106 25.9376 14.0626 24.9856 14.0626 23.8113C14.0626 22.637 13.1106 21.6851 11.9363 21.6851C10.762 21.6851 9.81006 22.637 9.81006 23.8113C9.81006 24.9856 10.762 25.9376 11.9363 25.9376Z" stroke="#313131" stroke-width="1.875" stroke-linecap="round" stroke-linejoin="round"/>
<path d="M21.2 25.9376C22.3743 25.9376 23.3262 24.9856 23.3262 23.8113C23.3262 22.637 22.3743 21.6851 21.2 21.6851C20.0257 21.6851 19.0737 22.637 19.0737 23.8113C19.0737 24.9856 20.0257 25.9376 21.2 25.9376Z" stroke="#313131" stroke-width="1.875" stroke-linecap="round" stroke-linejoin="round"/>
<path d="M7.0075 6.94375L9.52 14.8987C9.90625 16.1212 10.0988 16.7325 10.47 17.185C10.795 17.585 11.2187 17.8938 11.6975 18.085C12.2412 18.3013 12.8813 18.3012 14.1638 18.3012H18.9825C20.265 18.3012 20.905 18.3013 21.4475 18.085C21.9275 17.8938 22.35 17.585 22.6763 17.185C23.0463 16.7325 23.2387 16.1212 23.6262 14.8987L24.1375 13.2788L24.4375 12.3213L24.8513 11.0088C24.9989 10.5406 25.0342 10.0443 24.9543 9.56C24.8744 9.07569 24.6815 8.61702 24.3913 8.22114C24.1011 7.82527 23.7217 7.50332 23.2839 7.28139C22.846 7.05946 22.3621 6.94379 21.8712 6.94375H7.0075ZM7.0075 6.94375L6.99375 6.8975C6.94097 6.7207 6.8826 6.54561 6.81875 6.3725C6.56569 5.73193 6.13654 5.17603 5.58091 4.76903C5.02527 4.36204 4.36582 4.12056 3.67875 4.0725C3.55 4.0625 3.40875 4.0625 3.125 4.0625" stroke="#313131" stroke-width="1.875" stroke-linecap="round" stroke-linejoin="round"/>
</svg>
