<svg width="31" height="30" viewBox="0 0 31 30" fill="none" xmlns="http://www.w3.org/2000/svg">
<path d="M26.75 10C27.413 10 28.0489 10.2634 28.5178 10.7322C28.9866 11.2011 29.25 11.837 29.25 12.5V17.5C29.25 18.163 28.9866 18.7989 28.5178 19.2678C28.0489 19.7366 27.413 20 26.75 20H25.4225C25.118 22.4167 23.9419 24.6392 22.115 26.2503C20.288 27.8614 17.9358 28.7502 15.5 28.75V26.25C17.4891 26.25 19.3968 25.4598 20.8033 24.0533C22.2098 22.6468 23 20.7391 23 18.75V11.25C23 9.26087 22.2098 7.35322 20.8033 5.9467C19.3968 4.54017 17.4891 3.75 15.5 3.75C13.5109 3.75 11.6032 4.54017 10.1967 5.9467C8.79018 7.35322 8 9.26087 8 11.25V20H4.25C3.58696 20 2.95107 19.7366 2.48223 19.2678C2.01339 18.7989 1.75 18.163 1.75 17.5V12.5C1.75 11.837 2.01339 11.2011 2.48223 10.7322C2.95107 10.2634 3.58696 10 4.25 10H5.5775C5.88254 7.58362 7.05885 5.36159 8.88572 3.75084C10.7126 2.1401 13.0644 1.25134 15.5 1.25134C17.9356 1.25134 20.2874 2.1401 22.1143 3.75084C23.9411 5.36159 25.1175 7.58362 25.4225 10H26.75ZM10.2 19.7312L11.525 17.6112C12.7163 18.3577 14.0942 18.7524 15.5 18.75C16.9058 18.7524 18.2837 18.3577 19.475 17.6112L20.8 19.7312C19.2117 20.7266 17.3745 21.2531 15.5 21.25C13.6255 21.2531 11.7883 20.7266 10.2 19.7312Z" fill="#70665C"/>
</svg>
