<svg width="31" height="30" viewBox="0 0 31 30" fill="none" xmlns="http://www.w3.org/2000/svg">
<path d="M14.2563 2.5L23.3788 5.35C23.6333 5.42943 23.8557 5.5881 24.0135 5.80286C24.1714 6.01762 24.2565 6.27721 24.2563 6.54375V8.75H26.7563C27.0879 8.75 27.4058 8.8817 27.6402 9.11612C27.8747 9.35054 28.0063 9.66848 28.0063 10V12.5H11.7563V10C11.7563 9.66848 11.888 9.35054 12.1225 9.11612C12.3569 8.8817 12.6748 8.75 13.0063 8.75H21.7563V7.4625L14.2563 5.1175L6.75635 7.4625V16.7175C6.75617 17.4828 6.93166 18.2379 7.2693 18.9247C7.60695 19.6114 8.09773 20.2115 8.70385 20.6787L8.9401 20.8488L14.2563 24.4738L18.9838 21.25H13.0063C12.6748 21.25 12.3569 21.1183 12.1225 20.8839C11.888 20.6495 11.7563 20.3315 11.7563 20V15H28.0063V20C28.0063 20.3315 27.8747 20.6495 27.6402 20.8839C27.4058 21.1183 27.0879 21.25 26.7563 21.25L22.7313 21.2512C22.2476 21.8888 21.6601 22.4513 20.9813 22.9137L14.2563 27.5L7.53135 22.915C6.522 22.2268 5.69604 21.3025 5.12527 20.2224C4.55451 19.1423 4.25622 17.9391 4.25635 16.7175V6.54375C4.2565 6.27743 4.34171 6.01811 4.49955 5.80361C4.65739 5.5891 4.87962 5.43061 5.13385 5.35125L14.2563 2.5Z" fill="#70665C"/>
</svg>
