<svg width="30" height="30" viewBox="0 0 30 30" fill="none" xmlns="http://www.w3.org/2000/svg">
<g clip-path="url(#clip0_379_22)">
<path d="M-0.800269 15.1172C-0.800269 14.9515 -0.73442 14.7925 -0.61721 14.6753C-0.5 14.5581 -0.341029 14.4922 -0.175269 14.4922L20.9915 14.375L15.8077 9.1925C15.6904 9.07514 15.6244 8.91597 15.6244 8.75C15.6244 8.58403 15.6904 8.42486 15.8077 8.3075C15.9251 8.19014 16.0842 8.12421 16.2502 8.12421C16.4162 8.12421 16.5754 8.19014 16.6927 8.3075L22.9427 14.5575C23.0009 14.6156 23.0471 14.6845 23.0786 14.7605C23.1101 14.8364 23.1263 14.9178 23.1263 15C23.1263 15.0822 23.1101 15.1636 23.0786 15.2395C23.0471 15.3155 23.0009 15.3844 22.9427 15.4425L16.6927 21.6925C16.5754 21.8099 16.4162 21.8758 16.2502 21.8758C16.0842 21.8758 15.9251 21.8099 15.8077 21.6925C15.6904 21.5751 15.6244 21.416 15.6244 21.25C15.6244 21.084 15.6904 20.9249 15.8077 20.8075L20.9915 15.625L-0.175269 15.7422C-0.341029 15.7422 -0.5 15.6764 -0.61721 15.5592C-0.73442 15.4419 -0.800269 15.283 -0.800269 15.1172Z" fill="#D8CBBC"/>
</g>
<defs>
<clipPath id="clip0_379_22">
<rect width="30" height="30" fill="white" transform="translate(0 30) rotate(-90)"/>
</clipPath>
</defs>
</svg>
