<svg version="1.1" id="Layer_1" xmlns="http://www.w3.org/2000/svg" xmlns:xlink="http://www.w3.org/1999/xlink" x="0px" y="0px"
	 width="100%" viewBox="0 0 512 512" enable-background="new 0 0 512 512" xml:space="preserve">
<path fill="#000000" opacity="1.000000" stroke="none" 
	d="
M1.000000,397.449982 
	C3.789510,393.701141 7.400283,392.455048 11.636470,392.645905 
	C13.632035,392.735809 15.684838,392.373993 17.625315,392.712341 
	C23.151403,393.675873 25.977182,391.367249 27.912792,386.180420 
	C31.600954,376.297211 39.781242,369.548706 46.278824,361.637665 
	C47.016361,360.739685 47.937222,359.994537 48.706528,359.119995 
	C51.924522,355.461670 54.630402,352.446320 51.883717,346.436859 
	C48.042480,338.032623 51.134323,330.022034 58.550751,324.474609 
	C74.235886,312.742249 91.088181,303.327484 110.497810,299.274841 
	C114.368538,298.466614 116.917465,296.834259 118.322594,292.773529 
	C119.630264,288.994415 122.679886,286.115448 126.445122,284.423615 
	C139.689117,278.472778 153.509781,275.071289 168.013321,273.463593 
	C182.605713,271.846008 196.791595,273.169556 210.957993,276.140900 
	C214.414520,276.865936 214.737503,275.065704 214.618362,272.662537 
	C214.314514,266.534515 214.363632,260.332062 213.357758,254.312103 
	C212.395416,248.552750 212.461441,242.751587 211.870438,236.995850 
	C211.026550,228.777191 210.696884,220.488541 209.734283,212.255020 
	C208.004089,197.455734 219.420792,184.677353 234.364426,184.671524 
	C297.687286,184.646805 361.010132,184.651047 424.332977,184.667679 
	C437.964661,184.671249 448.202881,194.911636 448.335083,208.586487 
	C448.368622,212.057861 448.340057,215.529831 448.340057,219.259323 
	C448.908600,219.317108 449.600281,219.597183 450.126373,219.410492 
	C467.574799,213.218704 483.193787,217.437698 497.253510,228.322754 
	C504.056244,233.589417 508.390930,240.982208 511.131531,249.200531 
	C511.601562,250.610046 512.143494,251.995605 512.826050,253.696106 
	C513.000000,266.354218 513.000000,278.708466 512.862183,291.855377 
	C512.138672,294.197876 511.514313,295.734253 510.973328,297.299469 
	C503.168518,319.881836 479.657684,332.933868 456.342224,328.534698 
	C450.595795,327.450470 445.516510,324.758759 440.181213,322.978027 
	C436.061707,346.059875 440.159851,369.980011 430.055389,391.876068 
	C431.796143,393.188904 433.687347,392.624084 435.435791,392.627777 
	C457.233063,392.673767 479.030884,392.728271 500.827515,392.601990 
	C505.308502,392.576050 509.359497,393.367523 513.000000,396.000000 
	C513.000000,399.361298 513.000000,402.722565 512.754333,406.778687 
	C510.104370,413.280090 507.606598,419.050049 505.313812,424.900330 
	C499.246368,440.382019 488.441193,449.637848 469.836609,449.581360 
	C326.581238,449.146088 183.323883,449.315521 40.067200,449.389130 
	C26.721346,449.395996 17.635988,442.831573 11.880499,431.573547 
	C7.673985,423.345398 4.586369,414.545197 1.000000,406.000000 
	C1.000000,403.299988 1.000000,400.599976 1.000000,397.449982 
M326.500061,409.343597 
	C224.978119,409.343597 123.456169,409.343597 21.477793,409.343597 
	C22.954790,415.680115 24.850084,420.716522 27.776508,425.094818 
	C30.903418,429.773041 35.303299,432.713348 41.523121,432.710022 
	C185.168304,432.633148 328.813538,432.639801 472.458740,432.696045 
	C477.926422,432.698212 482.347931,430.696716 485.397125,426.459808 
	C488.877136,421.624176 490.805542,415.975983 492.352234,410.303284 
	C490.131256,408.824249 488.076294,409.378113 486.148193,409.375305 
	C455.819458,409.330841 425.490601,409.348999 395.161804,409.331787 
	C388.239594,409.327850 384.787750,406.630798 384.791168,401.344727 
	C384.794220,396.642426 388.771942,392.840210 394.596680,392.732086 
	C411.207611,392.423767 419.429291,379.884583 419.745117,365.751282 
	C419.974548,355.484528 421.018127,345.232239 421.817871,334.982849 
	C423.041718,319.298706 424.414398,303.626160 425.634949,287.941772 
	C426.445190,277.529602 427.020599,267.099060 427.843506,256.688019 
	C429.044159,241.497864 430.538849,226.329071 431.569214,211.128189 
	C432.012939,204.582062 428.531189,201.355591 421.971344,201.353622 
	C359.980591,201.335144 297.989441,201.446274 235.999741,201.190002 
	C229.269592,201.162186 225.538818,207.119614 226.872314,212.813339 
	C227.060623,213.617416 227.245850,214.434998 227.302277,215.255295 
	C228.667374,235.096176 229.968964,254.941574 231.398621,274.777740 
	C231.741486,279.535187 232.186829,284.135132 237.961075,286.249664 
	C241.056915,287.383362 242.950638,290.736359 243.787979,294.023285 
	C244.516312,296.882385 246.134827,298.055817 248.822876,298.647461 
	C268.106384,302.891693 285.294647,311.625549 301.151123,323.204376 
	C310.212585,329.821289 314.157806,338.760315 308.234253,349.962097 
	C307.190796,351.935364 307.479248,353.301147 308.936493,354.849182 
	C311.777435,357.867065 314.576965,360.934601 317.222443,364.123596 
	C323.652832,371.875092 331.407562,378.748352 334.671417,388.680328 
	C335.808746,392.141205 337.878021,392.774292 341.053101,392.697113 
	C347.381531,392.543274 353.721405,392.516052 360.047668,392.717194 
	C366.232758,392.913879 369.574463,396.450012 369.327240,402.052979 
	C369.118713,406.778473 365.910248,409.316833 359.995209,409.331635 
	C349.163544,409.358765 338.331818,409.342316 326.500061,409.343597 
M124.565392,367.829254 
	C123.686172,361.614685 122.620071,355.418915 121.991653,349.179077 
	C121.553032,344.823792 125.238670,340.234985 129.273132,339.796021 
	C133.342239,339.353271 136.550385,341.130371 138.056702,344.911255 
	C138.953064,347.161133 139.034668,349.761719 139.322708,352.223328 
	C140.725555,364.212250 142.038757,376.211761 143.467651,388.197479 
	C143.823730,391.184296 145.276657,392.828125 148.750626,392.722382 
	C156.403717,392.489380 164.068863,392.653687 171.729095,392.654724 
	C185.384293,392.656586 199.039505,392.672211 212.694641,392.643585 
	C214.790695,392.639191 217.233429,393.109039 217.603180,389.874817 
	C218.599258,381.162506 219.608231,372.451447 220.660400,363.745728 
	C222.227554,350.779358 223.886383,337.823883 225.407516,324.852173 
	C226.255249,317.622986 226.909668,310.371033 227.637451,303.127930 
	C227.861664,300.896393 227.082474,299.358887 224.845001,298.458710 
	C197.287979,287.371887 169.521545,286.103912 141.526382,296.680359 
	C133.374542,299.760101 132.140930,299.253662 134.217789,308.638184 
	C134.605209,310.388733 134.180878,312.302734 134.364578,314.117676 
	C134.847824,318.891663 132.502136,321.834137 128.210938,323.081573 
	C123.914261,324.330627 120.618767,322.437592 118.951134,318.424500 
	C117.810013,315.678467 116.227211,315.013702 113.518158,315.690002 
	C97.151337,319.775787 82.742348,327.739349 69.359169,337.782593 
	C67.033173,339.528107 68.111229,341.145905 69.278381,342.898438 
	C79.579422,358.365601 89.874535,373.836761 100.138374,389.328613 
	C101.180504,390.901581 102.217041,392.527985 104.269089,392.550507 
	C111.697754,392.631927 119.127853,392.582581 126.685608,392.582581 
	C127.067223,384.088318 124.667252,376.508636 124.565392,367.829254 
M448.247437,307.181519 
	C467.461884,320.378876 492.232422,308.200470 496.265839,287.010254 
	C497.852386,278.675232 497.708130,270.312195 496.821350,261.780670 
	C494.518616,239.626358 469.379272,226.222870 450.155304,237.365967 
	C448.143188,238.532272 446.389832,239.761139 446.211273,242.613022 
	C445.777527,249.538818 444.886292,256.434662 444.363098,263.356445 
	C443.576294,273.766571 443.676117,284.309479 441.977539,294.560394 
	C440.949432,300.765137 443.047058,303.976929 448.247437,307.181519 
M262.186829,320.491547 
	C257.940796,319.100616 253.740723,317.542480 249.437347,316.360321 
	C243.835815,314.821503 243.091187,315.512787 242.381821,321.489594 
	C239.753891,343.630981 237.105942,365.770050 234.421707,387.904663 
	C234.012924,391.275452 235.075653,392.828217 238.729355,392.699646 
	C244.545807,392.494995 250.375397,392.602295 256.198273,392.673309 
	C258.388672,392.700012 259.791473,391.975494 261.076904,390.033447 
	C271.329895,374.543671 281.731018,359.152008 292.076080,343.723114 
	C293.685211,341.323181 293.746826,339.133667 291.168243,337.264465 
	C282.291840,330.829956 273.257874,324.674347 262.186829,320.491547 
M283.568542,392.632721 
	C294.632416,392.632721 305.696289,392.632721 318.166504,392.632721 
	C311.454376,382.663361 303.960449,375.423920 296.820496,367.151398 
	C291.551331,374.977905 286.715942,382.111420 281.946838,389.288971 
	C281.094147,390.572296 280.293549,392.098480 283.568542,392.632721 
M51.788090,381.274628 
	C49.124744,384.538330 46.253407,387.667511 44.439919,392.113892 
	C56.713463,392.113892 68.455154,392.113892 81.188637,392.113892 
	C75.386238,383.420624 70.148804,375.573761 64.872398,367.668549 
	C59.408390,371.604340 56.453541,376.760193 51.788090,381.274628 
z"/>
<path fill="#000000" opacity="1.000000" stroke="none" 
	d="
M333.639099,108.422562 
	C337.946960,113.008667 342.300598,117.061195 344.042114,123.108299 
	C346.898010,133.024963 345.403839,141.775101 337.841888,149.156891 
	C333.695312,153.204666 329.393463,156.942566 328.881287,163.531540 
	C328.589752,167.281845 323.806885,169.767685 320.089935,169.187302 
	C316.130890,168.569077 312.851837,164.866302 312.730103,160.373108 
	C312.533630,153.121506 316.144135,147.409119 320.621246,142.123489 
	C320.835052,141.871078 321.107269,141.668243 321.351807,141.441818 
	C331.301208,132.229660 330.850433,130.521133 321.484741,121.355530 
	C309.392426,109.521561 309.742615,94.169556 321.771332,82.225555 
	C325.308350,78.713402 328.741333,75.391350 329.608948,69.977249 
	C330.406281,65.001526 334.537048,64.046989 338.850342,64.762756 
	C342.919830,65.438065 345.189789,68.066200 345.338348,72.322052 
	C345.618195,80.340256 342.087860,86.708092 336.706818,92.273201 
	C335.447693,93.575409 334.101074,94.797630 332.898041,96.148666 
	C328.170197,101.458252 328.251068,102.977203 333.639099,108.422562 
z"/>
<path fill="#000000" opacity="1.000000" stroke="none" 
	d="
M375.500916,87.989227 
	C374.051361,91.956673 373.077759,95.723061 371.244171,99.009659 
	C369.778320,101.637108 370.154480,103.615227 371.448547,105.901443 
	C377.333893,116.299004 378.150452,127.634583 377.089081,139.155472 
	C376.574799,144.737640 374.959961,150.161423 372.477051,155.303421 
	C369.977112,160.480728 366.126282,162.358734 361.312836,160.333496 
	C356.805939,158.437210 354.727692,153.711319 356.851532,148.837036 
	C362.067444,136.866180 363.047943,124.608894 356.029449,113.518333 
	C350.768860,105.205650 349.868134,98.430954 356.098846,90.681023 
	C358.944000,87.142120 359.231659,82.359779 360.707550,78.150734 
	C362.275360,73.679474 365.585571,71.869377 370.498108,72.772507 
	C374.889954,73.579918 376.457794,76.568275 376.330017,80.713524 
	C376.259033,83.016617 376.735199,85.386681 375.500916,87.989227 
z"/>
<path fill="#000000" opacity="1.000000" stroke="none" 
	d="
M286.901062,81.325554 
	C296.792480,79.826141 300.379425,83.452477 298.394073,92.768150 
	C295.930084,104.329765 298.248444,114.809006 304.940277,124.407341 
	C307.415833,127.958099 308.352631,131.585754 306.087677,135.572937 
	C304.180054,138.931168 301.147827,139.571106 297.552368,139.385300 
	C295.041077,139.255524 293.513062,137.804214 292.214813,136.129349 
	C282.672241,123.818596 279.439453,109.761444 281.211578,94.480400 
	C281.759613,89.754478 282.114349,84.761665 286.901062,81.325554 
z"/>
</svg>