<svg width="42" height="41" viewBox="0 0 42 41" fill="none" xmlns="http://www.w3.org/2000/svg">
<path fill-rule="evenodd" clip-rule="evenodd" d="M21.0018 0.347412C9.8774 0.347412 0.84552 9.37929 0.84552 20.5037C0.84552 31.628 9.8774 40.6599 21.0018 40.6599C32.1261 40.6599 41.158 31.628 41.158 20.5037C41.158 9.37929 32.1261 0.347412 21.0018 0.347412ZM25.8899 30.8274C26.3872 30.8274 26.8641 30.6299 27.2157 30.2782C27.5674 29.9266 27.7649 29.4497 27.7649 28.9524C27.7649 28.4551 27.5674 27.9782 27.2157 27.6266C26.8641 27.275 26.3872 27.0774 25.8899 27.0774C25.3926 27.0774 24.9157 27.275 24.5641 27.6266C24.2124 27.9782 24.0149 28.4551 24.0149 28.9524C24.0149 29.4497 24.2124 29.9266 24.5641 30.2782C24.9157 30.6299 25.3926 30.8274 25.8899 30.8274ZM17.9099 30.8274C18.4072 30.8274 18.8841 30.6299 19.2357 30.2782C19.5874 29.9266 19.7849 29.4497 19.7849 28.9524C19.7849 28.4551 19.5874 27.9782 19.2357 27.6266C18.8841 27.275 18.4072 27.0774 17.9099 27.0774C17.4126 27.0774 16.9357 27.275 16.5841 27.6266C16.2324 27.9782 16.0349 28.4551 16.0349 28.9524C16.0349 29.4497 16.2324 29.9266 16.5841 30.2782C16.9357 30.6299 17.4126 30.8274 17.9099 30.8274ZM14.8724 14.8712L14.5199 13.0224C14.4182 12.4862 14.1325 12.0023 13.7122 11.6542C13.2918 11.3061 12.7632 11.1156 12.2174 11.1155H10.6893C10.3163 11.1155 9.95862 11.2637 9.6949 11.5274C9.43118 11.7911 9.28302 12.1488 9.28302 12.5218C9.28302 12.8947 9.43118 13.2524 9.6949 13.5162C9.95862 13.7799 10.3163 13.928 10.6893 13.928H11.8293L12.2774 16.2868C12.2793 16.3762 12.2887 16.4652 12.3055 16.553L13.8805 24.4318C14.0296 25.1763 14.432 25.8462 15.0193 26.3275C15.6066 26.8088 16.3425 27.0718 17.1018 27.0718H26.2293C27.793 27.0718 29.1411 25.9674 29.4486 24.4318L30.8005 17.6762C30.8678 17.3359 30.8589 16.9851 30.7745 16.6487C30.6901 16.3123 30.5322 15.9988 30.3123 15.7306C30.0923 15.4625 29.8158 15.2464 29.5024 15.0978C29.1891 14.9492 28.8467 14.8718 28.4999 14.8712H14.8724Z" fill="white"/>
</svg>
