<svg width="40" height="39" viewBox="0 0 40 39" fill="none" xmlns="http://www.w3.org/2000/svg">
<path d="M20.0018 38.7138C30.4924 38.7138 39.212 30.0127 39.212 19.5036C39.212 9.01301 30.4731 0.293457 19.9825 0.293457C9.4742 0.293457 0.792419 9.01301 0.792419 19.5036C0.792419 30.0127 9.49269 38.7138 20.0018 38.7138ZM20.0026 35.5124C11.1119 35.5124 4.01072 28.3927 4.01072 19.5036C4.01072 10.6322 11.0926 3.49489 19.9825 3.49489C28.8531 3.49489 35.9905 10.633 36.0097 19.5036C36.0282 28.3935 28.8716 35.5124 20.001 35.5124M15.3869 11.1039C12.1477 11.1039 9.79322 13.5524 9.79322 16.9418C9.79322 21.9899 15.1418 26.6225 19.0592 29.128C19.3798 29.316 19.7937 29.5796 20.0388 29.5796C20.283 29.5796 20.6414 29.316 20.9428 29.128C24.8602 26.6225 30.1903 21.9899 30.1903 16.9427C30.1903 13.5516 27.8543 11.1039 24.5966 11.1039C22.5813 11.1039 20.9428 12.2715 20.0002 14.0233C19.0407 12.2715 17.4392 11.1039 15.3869 11.1039Z" fill="white"/>
</svg>
