<svg width="27" height="26" viewBox="0 0 27 26" fill="none" xmlns="http://www.w3.org/2000/svg">
<path d="M13.5 0.0712891C10.8925 0.0712891 8.34362 0.813565 6.17559 2.20425C4.00756 3.59494 2.31779 5.57157 1.31995 7.8842C0.322119 10.1968 0.0610394 12.7416 0.569731 15.1967C1.07842 17.6517 2.33404 19.9069 4.1778 21.6769C6.02156 23.4469 8.37065 24.6523 10.928 25.1406C13.4854 25.6289 16.1362 25.3783 18.5451 24.4204C20.9541 23.4625 23.0131 21.8403 24.4618 19.759C25.9104 17.6777 26.6836 15.2307 26.6836 12.7275C26.6824 9.37124 25.2931 6.15272 22.8209 3.77945C20.3488 1.40619 16.9962 0.0724073 13.5 0.0712891ZM18.3867 19.4775L13.5 17.0054L8.61329 19.4775L9.54493 14.2463L5.58985 10.5507L11.0566 9.78285L13.5 5.03254L15.9434 9.78285L21.4102 10.5507L17.4551 14.2463L18.3867 19.4775Z" fill="white"/>
</svg>
