<svg width="14" height="13" viewBox="0 0 14 13" fill="none" xmlns="http://www.w3.org/2000/svg">
<path d="M2.98251 1.40881C2.98256 1.09061 3.10898 0.785459 3.33398 0.56046C3.55898 0.335461 3.86413 0.209036 4.18233 0.208988L11.8191 0.208988C12.1373 0.209036 12.4424 0.335461 12.6674 0.56046C12.8924 0.785459 13.0189 1.09061 13.0189 1.40881L13.0189 9.04556C13.0134 9.36016 12.8846 9.66003 12.6602 9.88057C12.4358 10.1011 12.1337 10.2247 11.8191 10.2247C11.5044 10.2247 11.2024 10.1011 10.978 9.88057C10.7535 9.66003 10.6247 9.36016 10.6193 9.04556L10.5463 4.37865L2.48527 12.4397C2.26023 12.6647 1.955 12.7911 1.63674 12.7911C1.31848 12.7911 1.01326 12.6647 0.788214 12.4397C0.56317 12.2146 0.436742 11.9094 0.436742 11.5911C0.436742 11.2729 0.56317 10.9677 0.788214 10.7426L8.84923 2.6816L4.18233 2.60863C3.86413 2.60858 3.55898 2.48215 3.33398 2.25715C3.10898 2.03215 2.98256 1.727 2.98251 1.40881Z" fill="white"/>
</svg>
