<svg width="17" height="16" viewBox="0 0 17 16" fill="none" xmlns="http://www.w3.org/2000/svg">
<path fill-rule="evenodd" clip-rule="evenodd" d="M2.14351 7.02096C2.14351 7.02096 2.14351 7.02096 2.14351 7.02096L1.07685 13.421C1.02743 13.7174 1.17029 14.0841 1.5175 14.4129C1.86217 14.7394 2.31421 14.9333 2.6841 14.9333H13.3508C13.7207 14.9333 14.1727 14.7394 14.5174 14.4129C14.8646 14.0841 15.0075 13.7174 14.958 13.421L13.8914 7.02096C13.8202 6.59408 13.6027 6.15721 13.2964 5.8328C12.9901 5.50848 12.6329 5.33327 12.2841 5.33327H3.75077C3.40196 5.33327 3.04482 5.50848 2.73852 5.8328C2.43214 6.1572 2.21467 6.59408 2.14351 7.02096ZM1.96304 5.1004C2.41229 4.62472 3.03292 4.2666 3.75077 4.2666H12.2841C13.002 4.2666 13.6226 4.62472 14.0718 5.1004C14.521 5.576 14.8369 6.20579 14.9435 6.84559L16.0102 13.2456C16.1386 14.0163 15.7482 14.7164 15.2509 15.1874C14.7511 15.6607 14.0475 15.9999 13.3508 15.9999H2.6841C1.98733 15.9999 1.28377 15.6607 0.783977 15.1874C0.286714 14.7164 -0.10376 14.0163 0.0246927 13.2456L1.09136 6.84559C1.198 6.2058 1.51387 5.576 1.96304 5.1004Z" fill="#262626"/>
<path fill-rule="evenodd" clip-rule="evenodd" d="M4.81703 3.1875C5.11158 3.1875 5.35036 3.42628 5.35036 3.72083V6.93324C5.35036 7.22779 5.11158 7.46657 4.81703 7.46657C4.52247 7.46657 4.28369 7.22779 4.28369 6.93324V3.72083C4.28369 3.42628 4.52247 3.1875 4.81703 3.1875Z" fill="#262626"/>
<path fill-rule="evenodd" clip-rule="evenodd" d="M11.2172 3.19995C11.5117 3.19995 11.7505 3.43873 11.7505 3.73328V6.93329C11.7505 7.22784 11.5117 7.46662 11.2172 7.46662C10.9226 7.46662 10.6838 7.22784 10.6838 6.93329V3.73328C10.6838 3.43873 10.9226 3.19995 11.2172 3.19995Z" fill="#262626"/>
<path fill-rule="evenodd" clip-rule="evenodd" d="M0.223145 12.2211C0.223145 11.9265 0.461926 11.6877 0.756478 11.6877H15.2778C15.5724 11.6877 15.8112 11.9265 15.8112 12.2211C15.8112 12.5156 15.5724 12.7544 15.2778 12.7544H0.756478C0.461926 12.7544 0.223145 12.5156 0.223145 12.2211Z" fill="#262626"/>
<path fill-rule="evenodd" clip-rule="evenodd" d="M6.15656 0.498511C6.72221 0.171931 7.36387 0 8.01703 0C8.67019 0 9.31184 0.171931 9.87749 0.498511L9.8775 0.498514C11.0329 1.16563 11.7504 2.48106 11.7504 3.73333C11.7504 4.02788 11.5116 4.26666 11.217 4.26666C10.9225 4.26666 10.6837 4.02788 10.6837 3.73333C10.6837 2.85226 10.1611 1.89395 9.34415 1.42227C8.94066 1.18931 8.48295 1.06667 8.01703 1.06667C7.55111 1.06667 7.09339 1.18931 6.68989 1.42227L6.68989 1.42228C5.87289 1.89395 5.35036 2.85224 5.35036 3.73333C5.35036 4.02788 5.11158 4.26666 4.81703 4.26666C4.52247 4.26666 4.28369 4.02788 4.28369 3.73333C4.28369 2.48108 5.00103 1.16563 6.15656 0.498511Z" fill="#262626"/>
<path d="M0.0170898 14.9333H5.35043V16H0.0170898V14.9333Z" fill="#262626"/>
</svg>
