<svg width="16" height="16" viewBox="0 0 16 16" fill="none" xmlns="http://www.w3.org/2000/svg">
<path d="M11.4737 0C12.7114 0 13.7511 0.463768 14.5928 1.3913C15.4344 2.31884 15.8553 3.45098 15.8553 4.78772C15.8553 5.44246 15.7315 6.10401 15.4839 6.77238C15.2364 7.44075 14.9641 8.0341 14.667 8.55243C14.37 9.07076 13.8687 9.73913 13.1632 10.5575C12.4577 11.376 11.8636 12.0375 11.3809 12.5422C10.8982 13.0469 10.1246 13.8176 9.06015 14.8542L7.90906 16L6.75798 14.8951C5.71829 13.8312 4.9509 13.0469 4.45581 12.5422C3.96072 12.0375 3.36042 11.376 2.65492 10.5575C1.94942 9.73913 1.44814 9.07076 1.15108 8.55243C0.85403 8.0341 0.587919 7.44075 0.352752 6.77238C0.117584 6.10401 0 5.44246 0 4.78772C0 3.45098 0.420827 2.31884 1.26248 1.3913C2.10413 0.463768 3.13144 0 4.34442 0C5.78018 0 6.96839 0.613811 7.90906 1.84143C8.84974 0.613811 10.038 0 11.4737 0ZM7.98333 13.5857C9.1963 12.3853 10.0813 11.4919 10.6382 10.9054C11.1952 10.3188 11.8079 9.61637 12.4763 8.79795C13.1446 7.97954 13.6088 7.26343 13.8687 6.64962C14.1286 6.03581 14.2586 5.41517 14.2586 4.78772C14.2586 3.91475 13.9925 3.19182 13.4603 2.61893C12.928 2.04604 12.2659 1.75959 11.4737 1.75959C10.8796 1.75959 10.3164 1.95055 9.78422 2.33248C9.252 2.71441 8.87449 3.20546 8.6517 3.80563H7.16643C6.96839 3.20546 6.60326 2.71441 6.07104 2.33248C5.53882 1.95055 4.96328 1.75959 4.34442 1.75959C3.55227 1.75959 2.89628 2.04604 2.37643 2.61893C1.85659 3.19182 1.59667 3.91475 1.59667 4.78772C1.59667 5.41517 1.72044 6.03581 1.96798 6.64962C2.21553 7.26343 2.67968 7.97954 3.36042 8.79795C4.04117 9.61637 4.66004 10.3188 5.21701 10.9054C5.77399 11.4919 6.64658 12.3853 7.8348 13.5857L7.90906 13.6675L7.98333 13.5857Z" fill="#262626"/>
</svg>
