<svg width="12" height="16" viewBox="0 0 12 16" fill="none" xmlns="http://www.w3.org/2000/svg">
<path d="M5.71436 1.14286C6.27945 1.14286 6.83185 1.31043 7.3017 1.62437C7.77155 1.93832 8.13776 2.38454 8.35401 2.90662C8.57026 3.42869 8.62684 4.00317 8.5166 4.5574C8.40636 5.11163 8.13424 5.62073 7.73466 6.02031C7.33508 6.41988 6.82599 6.692 6.27176 6.80224C5.71753 6.91249 5.14305 6.85591 4.62098 6.63966C4.0989 6.42341 3.65268 6.0572 3.33873 5.58734C3.02478 5.11749 2.85721 4.56509 2.85721 4C2.85721 3.24224 3.15823 2.51551 3.69405 1.97969C4.22987 1.44388 4.9566 1.14286 5.71436 1.14286ZM5.71436 0C4.92323 0 4.14987 0.234596 3.49208 0.674122C2.83428 1.11365 2.32159 1.73836 2.01884 2.46927C1.71609 3.20017 1.63688 4.00444 1.79122 4.78036C1.94556 5.55629 2.32652 6.26902 2.88593 6.82843C3.44534 7.38784 4.15807 7.7688 4.934 7.92314C5.70992 8.07748 6.51419 7.99827 7.24509 7.69552C7.97599 7.39277 8.60071 6.88008 9.04024 6.22228C9.47976 5.56448 9.71436 4.79113 9.71436 4C9.71436 2.93913 9.29293 1.92172 8.54278 1.17157C7.79264 0.421427 6.77522 0 5.71436 0Z" fill="#333333"/>
<path d="M11.4286 16H10.2857V13.1428C10.2857 12.7676 10.2118 12.3961 10.0682 12.0494C9.92464 11.7028 9.71419 11.3878 9.44888 11.1225C9.18357 10.8572 8.8686 10.6468 8.52195 10.5032C8.17531 10.3596 7.80378 10.2857 7.42857 10.2857H4C3.24224 10.2857 2.51551 10.5867 1.97969 11.1225C1.44388 11.6583 1.14286 12.3851 1.14286 13.1428V16H0V13.1428C0 12.082 0.421428 11.0645 1.17157 10.3144C1.92172 9.56425 2.93913 9.14282 4 9.14282H7.42857C8.48944 9.14282 9.50685 9.56425 10.257 10.3144C11.0071 11.0645 11.4286 12.082 11.4286 13.1428V16Z" fill="#333333"/>
</svg>
