<svg width="44" height="56" viewBox="0 0 44 56" fill="none" xmlns="http://www.w3.org/2000/svg">
<path d="M41.6875 10.3125C34.2203 10.3125 26.7756 6.81465 23.5816 1.80465C23.4122 1.53867 23.1785 1.3197 22.902 1.168C22.6256 1.0163 22.3153 0.936768 22 0.936768C21.6847 0.936768 21.3744 1.0163 21.098 1.168C20.8215 1.3197 20.5878 1.53867 20.4184 1.80465C17.2244 6.81465 9.77875 10.3125 2.3125 10.3125C1.81522 10.3125 1.33831 10.51 0.986675 10.8616C0.635044 11.2133 0.4375 11.6902 0.4375 12.1875V30.9375C0.4375 43.9275 13.0328 53.1281 21.5453 55.2562C21.8438 55.3312 22.1562 55.3312 22.4547 55.2562C30.9672 53.1281 43.5625 43.9275 43.5625 30.9375V12.1875C43.5625 11.6902 43.365 11.2133 43.0133 10.8616C42.6617 10.51 42.1848 10.3125 41.6875 10.3125ZM22 41.25C19.4041 41.25 16.8665 40.4802 14.7081 39.038C12.5497 37.5958 10.8675 35.546 9.87408 33.1477C8.88068 30.7494 8.62076 28.1104 9.12719 25.5644C9.63363 23.0184 10.8837 20.6798 12.7192 18.8442C14.5548 17.0086 16.8934 15.7586 19.4394 15.2522C21.9854 14.7457 24.6244 15.0056 27.0227 15.999C29.421 16.9924 31.4708 18.6747 32.913 20.8331C34.3552 22.9915 35.125 25.5291 35.125 28.125C35.125 31.6059 33.7422 34.9443 31.2808 37.4057C28.8194 39.8672 25.481 41.25 22 41.25ZM28.9506 21.1743C29.3021 21.526 29.4996 22.0028 29.4996 22.5C29.4996 22.9971 29.3021 23.474 28.9506 23.8256L17.7006 35.0756C17.3491 35.4272 16.8722 35.6249 16.375 35.625C16.2746 35.6246 16.1743 35.6167 16.075 35.6015C15.7816 35.554 15.5038 35.4374 15.2643 35.2613C15.0249 35.0853 14.8307 34.8549 14.6978 34.589L12.8228 30.839C12.6003 30.3942 12.5636 29.8792 12.7207 29.4073C12.8779 28.9354 13.2161 28.5453 13.6609 28.3228C14.1058 28.1002 14.6208 28.0635 15.0926 28.2207C15.5645 28.3779 15.9547 28.7161 16.1772 29.1609L16.8888 30.585L26.2994 21.1743C26.651 20.8228 27.1278 20.6254 27.625 20.6254C28.1222 20.6254 28.599 20.8228 28.9506 21.1743Z" fill="#1E1E1E"/>
</svg>
