<svg width="62" height="62" viewBox="0 0 62 62" fill="none" xmlns="http://www.w3.org/2000/svg">
<path d="M54.252 54.2501L40.8264 40.8245M40.8264 40.8245C44.4601 37.1908 46.5015 32.2625 46.5015 27.1238C46.5015 21.985 44.4601 17.0567 40.8264 13.4231C37.1928 9.78941 32.2645 7.74805 27.1257 7.74805C21.987 7.74805 17.0587 9.78941 13.425 13.4231C9.79137 17.0567 7.75 21.985 7.75 27.1238C7.75 32.2625 9.79137 37.1908 13.425 40.8245C17.0587 44.4581 21.987 46.4995 27.1257 46.4995C32.2645 46.4995 37.1928 44.4581 40.8264 40.8245ZM27.127 19.3751V34.8751M34.877 27.1251H19.377" stroke="#111111" stroke-width="1.5" stroke-linecap="round" stroke-linejoin="round"/>
</svg>
