<svg width="20" height="20" viewBox="0 0 20 20" fill="none" xmlns="http://www.w3.org/2000/svg">
<path d="M17.5154 12.363L17.27 13.0717L17.27 13.0717L17.5154 12.363ZM17.5154 7.63698L17.7608 8.3457L17.5154 7.63698ZM2.48524 12.363L2.73061 13.0717L2.73061 13.0717L2.48524 12.363ZM2.48524 7.63698L2.23986 8.3457H2.23986L2.48524 7.63698ZM13.0307 8.03033C13.3235 7.73744 13.3235 7.26256 13.0307 6.96967C12.7378 6.67678 12.2629 6.67678 11.97 6.96967L13.0307 8.03033ZM6.97 11.9697C6.6771 12.2626 6.6771 12.7374 6.97 13.0303C7.26289 13.3232 7.73776 13.3232 8.03066 13.0303L6.97 11.9697ZM5.00033 16.75C3.57359 16.75 2.41699 15.5934 2.41699 14.1667H0.916992C0.916992 16.4218 2.74516 18.25 5.00033 18.25V16.75ZM17.5837 14.1667C17.5837 15.5934 16.4271 16.75 15.0003 16.75V18.25C17.2555 18.25 19.0837 16.4218 19.0837 14.1667H17.5837ZM15.0003 3.25C16.4271 3.25 17.5837 4.4066 17.5837 5.83333H19.0837C19.0837 3.57817 17.2555 1.75 15.0003 1.75V3.25ZM5.00033 1.75C2.74516 1.75 0.916992 3.57817 0.916992 5.83333H2.41699C2.41699 4.4066 3.57359 3.25 5.00033 3.25V1.75ZM17.7608 11.6543C17.0746 11.4167 16.5837 10.7647 16.5837 10H15.0837C15.0837 11.4236 15.9985 12.6315 17.27 13.0717L17.7608 11.6543ZM16.5837 10C16.5837 9.23526 17.0746 8.58326 17.7608 8.3457L17.27 6.92825C15.9985 7.36849 15.0837 8.57644 15.0837 10H16.5837ZM3.41699 10C3.41699 10.7647 2.92602 11.4167 2.23986 11.6543L2.73061 13.0717C4.00218 12.6315 4.91699 11.4236 4.91699 10H3.41699ZM2.23986 8.3457C2.92602 8.58326 3.41699 9.23526 3.41699 10H4.91699C4.91699 8.57644 4.00219 7.36849 2.73061 6.92825L2.23986 8.3457ZM19.0837 6.66667V5.83333H17.5837V6.66667H19.0837ZM17.5837 13.3333V14.1667H19.0837V13.3333H17.5837ZM0.916992 13.3333V14.1667H2.41699V13.3333H0.916992ZM2.41699 6.66667V5.83333H0.916992V6.66667H2.41699ZM15.0003 16.75H5.00033V18.25H15.0003V16.75ZM15.0003 1.75H5.00033V3.25H15.0003V1.75ZM2.23987 11.6543C1.64817 11.8592 0.916992 12.4229 0.916992 13.3333H2.41699C2.41699 13.3235 2.41863 13.2912 2.4695 13.2349C2.52435 13.1742 2.61658 13.1112 2.73061 13.0717L2.23987 11.6543ZM17.7608 8.3457C18.3525 8.14085 19.0837 7.57707 19.0837 6.66667H17.5837C17.5837 6.67651 17.582 6.70882 17.5311 6.76512C17.4763 6.82582 17.3841 6.88877 17.27 6.92825L17.7608 8.3457ZM2.73061 6.92825C2.61658 6.88877 2.52435 6.82582 2.4695 6.76512C2.41863 6.70882 2.41699 6.67651 2.41699 6.66667H0.916992C0.916992 7.57708 1.64817 8.14085 2.23986 8.3457L2.73061 6.92825ZM17.27 13.0717C17.3841 13.1112 17.4763 13.1742 17.5311 13.2349C17.582 13.2912 17.5837 13.3235 17.5837 13.3333H19.0837C19.0837 12.4229 18.3525 11.8592 17.7608 11.6543L17.27 13.0717ZM7.58366 7.5C7.58366 7.54602 7.54635 7.58333 7.50033 7.58333V9.08333C8.37478 9.08333 9.08366 8.37445 9.08366 7.5H7.58366ZM7.50033 7.58333C7.4543 7.58333 7.41699 7.54602 7.41699 7.5H5.91699C5.91699 8.37445 6.62587 9.08333 7.50033 9.08333V7.58333ZM7.41699 7.5C7.41699 7.45398 7.4543 7.41667 7.50033 7.41667V5.91667C6.62587 5.91667 5.91699 6.62555 5.91699 7.5H7.41699ZM7.50033 7.41667C7.54635 7.41667 7.58366 7.45398 7.58366 7.5H9.08366C9.08366 6.62555 8.37478 5.91667 7.50033 5.91667V7.41667ZM12.5837 12.5C12.5837 12.546 12.5463 12.5833 12.5003 12.5833V14.0833C13.3748 14.0833 14.0837 13.3745 14.0837 12.5H12.5837ZM12.5003 12.5833C12.4543 12.5833 12.417 12.546 12.417 12.5H10.917C10.917 13.3745 11.6259 14.0833 12.5003 14.0833V12.5833ZM12.417 12.5C12.417 12.454 12.4543 12.4167 12.5003 12.4167V10.9167C11.6259 10.9167 10.917 11.6255 10.917 12.5H12.417ZM12.5003 12.4167C12.5463 12.4167 12.5837 12.454 12.5837 12.5H14.0837C14.0837 11.6255 13.3748 10.9167 12.5003 10.9167V12.4167ZM11.97 6.96967L6.97 11.9697L8.03066 13.0303L13.0307 8.03033L11.97 6.96967Z" fill="#D7DFE9"/>
</svg>
