<svg width="21" height="20" viewBox="0 0 21 20" fill="none" xmlns="http://www.w3.org/2000/svg">
<path d="M12.3569 15.8333V5.83333M12.3569 15.8333H14.0236M12.3569 15.8333H8.19027M12.3569 5.83333C12.3569 3.99238 10.8645 2.5 9.0236 2.5H5.69027C3.84932 2.5 2.35693 3.99238 2.35693 5.83333V12.5C2.35693 14.0544 3.42082 15.3602 4.86014 15.7291M12.3569 5.83333H15.0312C15.4546 5.83333 15.8622 5.9945 16.1711 6.2841L18.4968 8.46449C18.8329 8.77957 19.0236 9.2197 19.0236 9.68039V14.1667C19.0236 15.0871 18.2774 15.8333 17.3569 15.8333M17.3569 15.8333C17.3569 16.7538 16.6107 17.5 15.6903 17.5C14.7698 17.5 14.0236 16.7538 14.0236 15.8333M17.3569 15.8333C17.3569 14.9129 16.6107 14.1667 15.6903 14.1667C14.7698 14.1667 14.0236 14.9129 14.0236 15.8333M8.19027 15.8333C8.19027 16.7538 7.44407 17.5 6.5236 17.5C5.60313 17.5 4.85693 16.7538 4.85693 15.8333C4.85693 15.7983 4.85801 15.7636 4.86014 15.7291M8.19027 15.8333C8.19027 14.9129 7.44407 14.1667 6.5236 14.1667C5.63812 14.1667 4.91392 14.8572 4.86014 15.7291" stroke="#AFBACA" stroke-width="1.5"/>
<path d="M9.0236 6.66663L7.35693 6.66663" stroke="#AFBACA" stroke-width="1.5" stroke-linecap="round" stroke-linejoin="round"/>
<path d="M9.02376 10L5.69043 10" stroke="#AFBACA" stroke-width="1.5" stroke-linecap="round" stroke-linejoin="round"/>
</svg>
