<svg xmlns="http://www.w3.org/2000/svg" version="1.1" xmlns:xlink="http://www.w3.org/1999/xlink" xmlns:svgjs="http://svgjs.dev/svgjs" width="1440" height="560" preserveAspectRatio="none" viewBox="0 0 1440 560"><g mask="url(&quot;#SvgjsMask1048&quot;)" fill="none"><rect width="1440" height="560" x="0" y="0" fill="rgba(9, 75, 99, 1)"></rect><path d="M446.0729114250811 422.8124682356758L468.4609269744804 582.1114762201379 627.7599349589425 559.7234606707386 605.3719194095431 400.4244526862765z" fill="rgba(22, 22, 22, 0.4)" class="triangle-float3"></path><path d="M958.977,60.442C979.788,59.942,1000.968,52.78,1011.235,34.671C1021.388,16.763,1015.663,-4.478,1006.127,-22.722C995.612,-42.839,981.675,-65.116,958.977,-65.31C936.092,-65.505,921.496,-43.561,910.412,-23.538C899.79,-4.351,891.199,18.309,902.178,37.294C913.148,56.264,937.07,60.969,958.977,60.442" fill="rgba(22, 22, 22, 0.4)" class="triangle-float1"></path><path d="M801.6600041007897 331.96951625550224L717.9355352985575 301.49630173174046 687.4623207747957 385.22077053397265 771.1867895770279 415.69398505773444z" fill="rgba(22, 22, 22, 0.4)" class="triangle-float3"></path><path d="M1147.27 32.89 a96.54 96.54 0 1 0 193.08 0 a96.54 96.54 0 1 0 -193.08 0z" fill="rgba(22, 22, 22, 0.4)" class="triangle-float3"></path><path d="M1043.234,473.461C1067.968,473.747,1087.314,454.864,1099.77,433.493C1112.336,411.935,1120.351,385.119,1107.02,364.025C1094.262,343.838,1067.088,342.894,1043.234,344.036C1021.898,345.058,1000.422,351.481,989.219,369.667C977.5,388.692,978.603,412.39,988.918,432.212C1000.167,453.827,1018.869,473.179,1043.234,473.461" fill="rgba(22, 22, 22, 0.4)" class="triangle-float1"></path><path d="M-71.78 148.9 a153.55 153.55 0 1 0 307.1 0 a153.55 153.55 0 1 0 -307.1 0z" fill="rgba(22, 22, 22, 0.4)" class="triangle-float3"></path><path d="M461.6354246322358 224.11890966910443L318.2010961443365 201.40114382822279 295.48333030345486 344.8354723161221 438.91765879135414 367.55323815700376z" fill="rgba(22, 22, 22, 0.4)" class="triangle-float2"></path><path d="M1201.97 38.62 a173.82 173.82 0 1 0 347.64 0 a173.82 173.82 0 1 0 -347.64 0z" fill="rgba(22, 22, 22, 0.4)" class="triangle-float1"></path><path d="M912.195,220.1C935.768,220.697,960.728,214.212,972.801,193.956C985.103,173.316,981.147,146.837,967.749,126.891C955.759,109.041,933.697,103.904,912.195,103.735C890.304,103.563,866.858,107.534,855.109,126.006C842.64,145.61,844.629,171.154,856.68,191.017C868.294,210.16,889.811,219.533,912.195,220.1" fill="rgba(22, 22, 22, 0.4)" class="triangle-float3"></path></g><defs><mask id="SvgjsMask1048"><rect width="1440" height="560" fill="#ffffff"></rect></mask><style>
                @keyframes float1 {
                    0%{transform: translate(0, 0)}
                    50%{transform: translate(-10px, 0)}
                    100%{transform: translate(0, 0)}
                }

                .triangle-float1 {
                    animation: float1 5s infinite;
                }

                @keyframes float2 {
                    0%{transform: translate(0, 0)}
                    50%{transform: translate(-5px, -5px)}
                    100%{transform: translate(0, 0)}
                }

                .triangle-float2 {
                    animation: float2 4s infinite;
                }

                @keyframes float3 {
                    0%{transform: translate(0, 0)}
                    50%{transform: translate(0, -10px)}
                    100%{transform: translate(0, 0)}
                }

                .triangle-float3 {
                    animation: float3 6s infinite;
                }
            </style></defs></svg>