<svg width="52" height="60" viewBox="0 0 52 60" fill="none" xmlns="http://www.w3.org/2000/svg">
<path d="M51.3996 50.9802L43.5456 37.482C44.9047 37.0674 46.3525 36.7013 46.9541 35.6626C47.9566 33.9318 46.1721 31.0927 46.6407 29.2376C47.1234 27.3283 49.9729 25.6763 49.9729 23.7355C49.9729 21.8448 47.0269 19.6359 46.5439 17.7378C46.072 15.883 47.8512 13.0408 46.8454 11.3122C45.8397 9.5834 42.4896 9.72544 41.1106 8.39844C39.6916 7.03286 39.696 3.69171 37.9846 2.77656C36.2662 1.85802 33.4734 3.71441 31.5654 3.27467C29.6792 2.83996 27.994 0 26.0238 0C24.0244 0 20.8443 3.22149 20.3455 3.33742C18.4385 3.78073 15.6422 1.92887 13.9255 2.85131C12.2157 3.76954 12.2263 7.11101 10.8099 8.47887C9.43317 9.80829 6.08294 9.67241 5.08024 11.4031C4.0777 13.1336 5.86226 15.9721 5.39382 17.8281C4.92409 19.6889 1.97533 21.5743 1.97533 23.7263C1.97533 25.6672 4.83199 27.3141 5.31762 29.2224C5.78962 31.0771 4.01041 33.919 5.01619 35.6483C5.56375 36.5896 6.8061 36.9759 8.04683 37.3474C8.19163 37.3907 8.46549 37.5527 8.28 37.823L0.599207 51.0791C0.055698 52.017 0.497056 52.8209 1.5797 52.8664L6.87907 53.0874C7.96171 53.133 9.31983 53.9197 9.89771 54.8363L12.7255 59.3235C13.3034 60.2401 14.2203 60.2229 14.7637 59.2853C14.7637 59.2853 22.6758 45.6252 22.6791 45.6213C22.8378 45.4358 22.9974 45.4739 23.0737 45.5388C23.9394 46.2759 25.1463 47.0112 26.1535 47.0112C27.1413 47.0112 28.056 46.319 28.9607 45.5471C29.0343 45.4843 29.2135 45.3557 29.3445 45.6226C29.3466 45.6269 37.2501 59.2121 37.2501 59.2121C37.7949 60.1487 38.7119 60.1646 39.288 59.2468L42.1079 54.7543C42.6842 53.837 44.0408 53.0472 45.1235 53.0001L50.4224 52.7692C51.5045 52.7217 51.9444 51.9166 51.3996 50.9802ZM34.7817 38.6927C28.9225 42.1015 21.8894 41.7362 16.5176 38.3479C8.64628 33.306 6.05635 22.8762 10.7882 14.7091C15.5741 6.44784 26.0945 3.53281 34.4302 8.07269C34.474 8.09653 34.5173 8.12118 34.5607 8.1455C34.6225 8.17971 34.6841 8.21441 34.7456 8.24943C37.3172 9.73208 39.5472 11.8839 41.144 14.6285C46.0242 23.0172 43.1703 33.8125 34.7817 38.6927Z" fill="#1E1E1E"/>
<path d="M33.4418 10.7183C33.4174 10.7042 33.3928 10.691 33.3685 10.6771C28.9157 8.09998 23.2403 7.91157 18.4838 10.6789C11.4253 14.7854 9.02344 23.8685 13.1299 30.9269C14.383 33.0808 16.1001 34.8002 18.0812 36.0341C18.2501 36.1416 18.4211 36.2458 18.5942 36.3465C25.6603 40.4402 34.7386 38.022 38.8321 30.9562C42.9254 23.8901 40.5079 14.812 33.4418 10.7183ZM35.2095 22.2696L32.7353 24.6812C31.969 25.4281 31.49 26.9023 31.6712 27.957L32.2552 31.3622C32.4361 32.417 31.8093 32.8724 30.862 32.3745L27.8038 30.7667C26.8566 30.2687 25.3066 30.2687 24.3594 30.7667L21.3014 32.3745C20.3541 32.8724 19.7271 32.417 19.908 31.3622L20.4921 27.957C20.673 26.9023 20.1941 25.4281 19.4278 24.6812L16.9538 22.2696C16.1873 21.5228 16.427 20.7857 17.4859 20.6316L20.9049 20.1348C21.9639 19.981 23.2179 19.0699 23.6915 18.1103L25.2206 15.0122C25.6942 14.0526 26.4692 14.0526 26.9427 15.0122L28.4719 18.1103C28.9455 19.0699 30.1994 19.981 31.2585 20.1348L34.6775 20.6316C35.7363 20.7857 35.9758 21.5228 35.2095 22.2696Z" fill="#1E1E1E"/>
</svg>
