<svg width="58" height="56" viewBox="0 0 58 56" fill="none" xmlns="http://www.w3.org/2000/svg">
<path fill-rule="evenodd" clip-rule="evenodd" d="M32.5535 1.41496L36.1261 4.08917C37.1032 4.82054 38.1317 5.19484 39.3503 5.26269L43.8059 5.51054C46.4739 5.6589 48.6408 7.47706 49.2502 10.0789L50.2681 14.4238C50.5464 15.6121 51.0936 16.5599 51.9836 17.3951L55.2375 20.4491C57.1859 22.2777 57.677 25.0634 56.4716 27.4482L54.4585 31.4308C53.9079 32.52 53.7178 33.5978 53.8627 34.8096L54.3924 39.2407C54.7095 41.894 53.2951 44.3435 50.8389 45.3955L46.7366 47.1524C45.6147 47.6329 44.7763 48.3364 44.1083 49.3578L41.6658 53.0925C40.2033 55.3288 37.5452 56.2962 34.9875 55.5232L30.7158 54.2323C29.5476 53.8792 28.4531 53.8792 27.2848 54.2323L23.0131 55.5232C20.4553 56.2962 17.7973 55.3288 16.3348 53.0925L13.8922 49.3578C13.2242 48.3364 12.3858 47.6329 11.264 47.1524L7.16146 45.3953C4.70521 44.3433 3.29087 41.8937 3.60798 39.2405L4.13767 34.8094C4.28251 33.5976 4.09244 32.5198 3.54189 31.4305L1.52873 27.4479C0.323335 25.0633 0.814468 22.2776 2.76283 20.4489L6.01677 17.3949C6.90669 16.5597 7.45384 15.6119 7.73216 14.4236L8.75005 10.0786C9.35943 7.47695 11.5263 5.65878 14.1944 5.51031L18.6499 5.26246C19.8686 5.19472 20.897 4.82031 21.8741 4.08894L25.4467 1.41472C27.5857 -0.186294 30.4144 -0.186294 32.5535 1.41496ZM26.7211 29.5305L22.8441 25.6534C21.8392 24.6486 20.2092 24.6486 19.2045 25.6534C18.1996 26.6583 18.1996 28.2882 19.2045 29.293L24.9069 34.9954C25.9118 36.0001 27.5418 36.0003 28.5465 34.9954C31.9836 31.5582 35.3819 28.0824 38.8031 24.6294C39.8008 23.6226 39.7976 21.9979 38.792 20.9979C37.7863 19.9977 36.1569 20.0005 35.1583 21.0092L26.7211 29.5305ZM29.0001 8.83445C23.7077 8.83445 18.9163 10.9797 15.448 14.448C11.9797 17.9164 9.83451 22.7077 9.83451 28C9.83451 33.2923 11.9797 38.0837 15.448 41.552C18.9163 45.0203 23.7077 47.1655 29.0001 47.1655C34.2924 47.1655 39.0838 45.0203 42.5521 41.552C46.0204 38.0837 48.1656 33.2923 48.1656 28C48.1656 22.7077 46.0204 17.9162 42.5521 14.448C39.0838 10.9797 34.2924 8.83445 29.0001 8.83445ZM41.2263 15.7737C38.0974 12.6448 33.7747 10.7094 29.0001 10.7094C24.2254 10.7094 19.9027 12.6448 16.7738 15.7737C13.6449 18.9026 11.7095 23.2253 11.7095 28C11.7095 32.7747 13.6449 37.0974 16.7738 40.2263C19.9027 43.3552 24.2254 45.2905 29.0001 45.2905C33.7747 45.2905 38.0974 43.3552 41.2263 40.2264C44.3552 37.0975 46.2905 32.7748 46.2905 28.0001C46.2906 23.2253 44.3552 18.9026 41.2263 15.7737Z" fill="#1E1E1E"/>
</svg>
