<svg width="30" height="30" viewBox="0 0 30 30" fill="none" xmlns="http://www.w3.org/2000/svg">
    <path d="M13.788 24.1008C13.8752 24.0137 13.9444 23.9103 13.9915 23.7965C14.0387 23.6827 14.063 23.5607 14.063 23.4375C14.063 23.3143 14.0387 23.1923 13.9915 23.0785C13.9444 22.9647 13.8752 22.8613 13.788 22.7743L6.95015 15.9375L25.3123 15.9375C25.5609 15.9375 25.7994 15.8388 25.9752 15.6629C26.151 15.4871 26.2498 15.2487 26.2498 15C26.2498 14.7514 26.151 14.5129 25.9752 14.3371C25.7994 14.1613 25.5609 14.0625 25.3123 14.0625L6.95015 14.0625L13.788 7.22581C13.964 7.0499 14.0628 6.81131 14.0628 6.56253C14.0628 6.31375 13.964 6.07516 13.788 5.89925C13.6121 5.72334 13.3735 5.62451 13.1248 5.62451C12.876 5.62451 12.6374 5.72334 12.4615 5.89925L4.02398 14.3368C3.93681 14.4238 3.86767 14.5272 3.82049 14.641C3.77331 14.7548 3.74902 14.8768 3.74902 15C3.74902 15.1232 3.77331 15.2452 3.82049 15.359C3.86767 15.4728 3.93681 15.5762 4.02398 15.6633L12.4615 24.1008C12.5485 24.188 12.6519 24.2571 12.7658 24.3043C12.8796 24.3515 13.0016 24.3758 13.1248 24.3758C13.248 24.3758 13.37 24.3515 13.4838 24.3043C13.5976 24.2571 13.701 24.188 13.788 24.1008Z" fill="#313131"/>
</svg>