<svg width="30" height="30" viewBox="0 0 30 30" fill="none" xmlns="http://www.w3.org/2000/svg">
<path d="M16.212 24.1008C16.1248 24.0137 16.0556 23.9103 16.0085 23.7965C15.9613 23.6827 15.937 23.5607 15.937 23.4375C15.937 23.3143 15.9613 23.1923 16.0085 23.0785C16.0556 22.9647 16.1248 22.8613 16.212 22.7743L23.0498 15.9375L4.68774 15.9375C4.4391 15.9375 4.20064 15.8388 4.02483 15.6629C3.84901 15.4871 3.75024 15.2487 3.75024 15C3.75024 14.7514 3.84901 14.5129 4.02483 14.3371C4.20064 14.1613 4.4391 14.0625 4.68774 14.0625L23.0498 14.0625L16.212 7.22581C16.036 7.0499 15.9372 6.81131 15.9372 6.56253C15.9372 6.31375 16.036 6.07516 16.212 5.89925C16.3879 5.72334 16.6265 5.62451 16.8752 5.62451C17.124 5.62451 17.3626 5.72334 17.5385 5.89925L25.976 14.3368C26.0632 14.4238 26.1323 14.5272 26.1795 14.641C26.2267 14.7548 26.251 14.8768 26.251 15C26.251 15.1232 26.2267 15.2452 26.1795 15.359C26.1323 15.4728 26.0632 15.5762 25.976 15.6633L17.5385 24.1008C17.4515 24.188 17.3481 24.2571 17.2342 24.3043C17.1204 24.3515 16.9984 24.3758 16.8752 24.3758C16.752 24.3758 16.63 24.3515 16.5162 24.3043C16.4024 24.2571 16.299 24.188 16.212 24.1008Z" fill="#F8F8F8"/>
</svg>
