<!--?xml version="1.0" standalone="no"?-->
              <svg id="sw-js-blob-svg" viewBox="0 0 100 100" xmlns="http://www.w3.org/2000/svg" version="1.1">
                    <defs> 
                        <linearGradient id="sw-gradient" x1="0" x2="1" y1="1" y2="0">
                            <stop id="stop1" stop-color="rgba(23, 122, 254, 1)" offset="0%"></stop>
                            <stop id="stop2" stop-color="rgba(23, 122, 254, 0.43)" offset="100%"></stop>
                        </linearGradient>
                    </defs>
                <path fill="url(#sw-gradient)" d="M19,-28.7C23.1,-26.9,23.9,-19.1,25.2,-12.6C26.5,-6.1,28.4,-0.9,29.6,5.7C30.9,12.3,31.7,20.2,28.4,25.5C25.2,30.9,17.9,33.6,11.4,32.7C4.9,31.8,-0.9,27.2,-7.1,24.9C-13.3,22.7,-19.9,22.9,-22,19.6C-24.1,16.3,-21.6,9.5,-24.7,2.3C-27.8,-5,-36.3,-12.8,-36.5,-18.5C-36.7,-24.2,-28.5,-27.9,-21,-28.1C-13.5,-28.3,-6.8,-25,0.3,-25.5C7.4,-26,14.9,-30.4,19,-28.7Z" width="100%" height="100%" transform="translate(50 50)" stroke-width="0" style="transition: all 0.3s ease 0s;"></path>
              </svg>