<!--?xml version="1.0" standalone="no"?-->
              <svg id="sw-js-blob-svg" viewBox="0 0 100 100" xmlns="http://www.w3.org/2000/svg" version="1.1">
                    <defs> 
                        <linearGradient id="sw-gradient" x1="0" x2="1" y1="1" y2="0">
                            <stop id="stop1" stop-color="rgba(23, 122, 254, 1)" offset="0%"></stop>
                            <stop id="stop2" stop-color="rgba(23, 122, 254, 0.28)" offset="100%"></stop>
                        </linearGradient>
                    </defs>
                <path fill="url(#sw-gradient)" d="M24,-34.6C29.3,-29.2,30.6,-19.8,30.8,-11.7C31,-3.7,30.1,2.9,26.9,7.5C23.7,12.1,18.1,14.6,13.2,21.2C8.3,27.8,4.2,38.3,-2.1,41.2C-8.3,44,-16.5,39.1,-23,33C-29.4,27,-34.1,19.8,-35.9,12.1C-37.8,4.5,-36.9,-3.6,-32.6,-8.6C-28.3,-13.7,-20.5,-15.7,-14.5,-20.8C-8.5,-26,-4.3,-34.4,2.5,-37.9C9.4,-41.3,18.7,-40,24,-34.6Z" width="100%" height="100%" transform="translate(50 50)" stroke-width="0" style="transition: all 0.3s ease 0s;"></path>
              </svg>