<svg width="20" height="20" viewBox="0 0 20 20" fill="none" xmlns="http://www.w3.org/2000/svg">
<path d="M4.73967 17.8661L12.6058 10L4.73967 2.13387C4.5076 1.89897 4.37791 1.58178 4.37891 1.25158C4.37991 0.921372 4.51153 0.604978 4.74502 0.371488C4.97851 0.137997 5.29491 0.00637921 5.62511 0.00537686C5.95532 0.00437451 6.2725 0.134069 6.50741 0.366138L15.2574 9.11614C15.4918 9.35056 15.6235 9.66849 15.6235 10C15.6235 10.3315 15.4918 10.6495 15.2574 10.8839L6.50741 19.6339C6.2725 19.8659 5.95532 19.9956 5.62511 19.9946C5.29491 19.9936 4.97851 19.862 4.74502 19.6285C4.51153 19.395 4.37991 19.0786 4.37891 18.7484C4.37791 18.4182 4.5076 18.101 4.73967 17.8661Z" fill="#5F1706"/>
</svg>
