<svg width="40" height="40" viewBox="0 0 40 40" fill="none" xmlns="http://www.w3.org/2000/svg">
<g clip-path="url(#clip0_269_13917)">
<path d="M38.2532 2.60365C36.4482 1.63173 34.435 3.50616 33.2548 4.61693C30.5474 7.25501 28.2564 10.3096 25.6876 13.0866C22.8413 16.1412 20.2032 19.1958 17.2874 22.1811C15.6213 23.8473 13.8163 25.6523 12.7055 27.735C10.2063 25.305 8.05416 22.667 5.27723 20.5149C3.26396 18.9876 -0.0683555 17.8769 0.00106767 21.5563C0.139914 26.3466 4.37473 31.4839 7.49877 34.7467C8.81781 36.1352 10.5534 37.593 12.5667 37.6625C14.9965 37.8013 17.4957 34.8855 18.9536 33.2888C21.5224 30.5119 23.6051 27.3877 25.9653 24.5415C29.02 20.7926 32.144 17.1131 35.1292 13.2948C37.0036 10.9344 42.9046 5.10278 38.2532 2.60365ZM3.05557 21.2786C2.98615 21.2786 2.91673 21.2786 2.77788 21.3479C2.50019 21.2786 2.29192 21.2091 2.01423 21.0702C2.2225 20.9314 2.56961 21.0008 3.05557 21.2786Z" fill="#1E1E1E"/>
</g>
<defs>
<clipPath id="clip0_269_13917">
<rect width="40" height="40" fill="white"/>
</clipPath>
</defs>
</svg>
