<svg width="30" height="30" viewBox="0 0 30 30" fill="none" xmlns="http://www.w3.org/2000/svg">
<path d="M26.25 10.0001C26.913 10.0001 27.5489 10.2635 28.0178 10.7324C28.4866 11.2012 28.75 11.8371 28.75 12.5001V17.5001C28.75 18.1632 28.4866 18.799 28.0178 19.2679C27.5489 19.7367 26.913 20.0001 26.25 20.0001H24.9225C24.618 22.4169 23.4419 24.6394 21.615 26.2504C19.788 27.8615 17.4358 28.7503 15 28.7501V26.2501C16.9891 26.2501 18.8968 25.4599 20.3033 24.0534C21.7098 22.6469 22.5 20.7392 22.5 18.7501V11.2501C22.5 9.261 21.7098 7.35334 20.3033 5.94682C18.8968 4.5403 16.9891 3.75012 15 3.75012C13.0109 3.75012 11.1032 4.5403 9.6967 5.94682C8.29018 7.35334 7.5 9.261 7.5 11.2501V20.0001H3.75C3.08696 20.0001 2.45107 19.7367 1.98223 19.2679C1.51339 18.799 1.25 18.1632 1.25 17.5001V12.5001C1.25 11.8371 1.51339 11.2012 1.98223 10.7324C2.45107 10.2635 3.08696 10.0001 3.75 10.0001H5.0775C5.38254 7.58374 6.55885 5.36171 8.38572 3.75096C10.2126 2.14022 12.5644 1.25146 15 1.25146C17.4356 1.25146 19.7874 2.14022 21.6143 3.75096C23.4411 5.36171 24.6175 7.58374 24.9225 10.0001H26.25ZM9.7 19.7314L11.025 17.6114C12.2163 18.3578 13.5942 18.7525 15 18.7501C16.4058 18.7525 17.7837 18.3578 18.975 17.6114L20.3 19.7314C18.7117 20.7267 16.8745 21.2532 15 21.2501C13.1255 21.2532 11.2883 20.7267 9.7 19.7314Z" fill="#979088"/>
</svg>
