<svg width="30" height="30" viewBox="0 0 30 30" fill="none" xmlns="http://www.w3.org/2000/svg">
<path d="M12.5 20.625L16.25 21.875C16.25 21.875 25.625 20 26.875 20C28.125 20 28.125 21.25 26.875 22.5C25.625 23.75 21.25 27.5 17.5 27.5C13.75 27.5 11.25 25.625 8.75 25.625H2.5" stroke="#979088" stroke-width="2.5" stroke-linecap="round" stroke-linejoin="round"/>
<path d="M2.5 18.125C3.75 16.875 6.25 15 8.75 15C11.25 15 17.1875 17.5 18.125 18.75C19.0625 20 16.25 21.875 16.25 21.875M10 11.25V6.25C10 5.91848 10.1317 5.60054 10.3661 5.36612C10.6005 5.1317 10.9185 5 11.25 5H26.25C26.5815 5 26.8995 5.1317 27.1339 5.36612C27.3683 5.60054 27.5 5.91848 27.5 6.25V16.25" stroke="#979088" stroke-width="2.5" stroke-linecap="round" stroke-linejoin="round"/>
<path d="M15.625 5H21.875V10.625H15.625V5Z" fill="#979088" stroke="#979088" stroke-width="2.5" stroke-linecap="round" stroke-linejoin="round"/>
</svg>
