<svg width="33" height="30" viewBox="0 0 33 30" fill="none" xmlns="http://www.w3.org/2000/svg">
<path d="M14.8989 2.5L24.7792 5.35C25.0548 5.42943 25.2956 5.5881 25.4666 5.80286C25.6376 6.01762 25.7297 6.27721 25.7296 6.54375V8.75H28.4373C28.7963 8.75 29.1407 8.8817 29.3946 9.11612C29.6485 9.35054 29.7911 9.66848 29.7911 10V12.5H12.1913V10C12.1913 9.66848 12.3339 9.35054 12.5878 9.11612C12.8417 8.8817 13.186 8.75 13.5451 8.75H23.0219V7.4625L14.8989 5.1175L6.77594 7.4625V16.7175C6.77574 17.4828 6.96581 18.2379 7.3315 18.9247C7.69719 19.6114 8.22874 20.2115 8.88521 20.6787L9.14108 20.8488L14.8989 24.4738L20.0191 21.25H13.5451C13.186 21.25 12.8417 21.1183 12.5878 20.8839C12.3339 20.6495 12.1913 20.3315 12.1913 20V15H29.7911V20C29.7911 20.3315 29.6485 20.6495 29.3946 20.8839C29.1407 21.1183 28.7963 21.25 28.4373 21.25L24.0779 21.2512C23.554 21.8887 22.9177 22.4512 22.1826 22.9137L14.8989 27.5L7.61531 22.915C6.52212 22.2268 5.62755 21.3025 5.00937 20.2224C4.3912 19.1423 4.06813 17.9391 4.06827 16.7175V6.54375C4.06843 6.27743 4.16072 6.01811 4.33167 5.80361C4.50263 5.5891 4.74332 5.43061 5.01866 5.35125L14.8989 2.5Z" fill="#979088"/>
</svg>
