<svg width="52" height="52" viewBox="0 0 52 52" fill="none" xmlns="http://www.w3.org/2000/svg">
<path d="M18.2 13.4333C18.4276 13.2626 18.6867 13.1384 18.9623 13.0678C19.2379 12.9972 19.5248 12.9815 19.8064 13.0218C20.0881 13.062 20.3591 13.1573 20.6039 13.3023C20.8488 13.4473 21.0626 13.639 21.2333 13.8667C21.4041 14.0943 21.5283 14.3533 21.5989 14.6289C21.6695 14.9046 21.6851 15.1914 21.6449 15.4731C21.6047 15.7548 21.5093 16.0257 21.3644 16.2706C21.2194 16.5154 21.0276 16.7293 20.8 16.9C17.4113 19.4415 15.47 21.9137 14.3585 24.0717C15.8847 23.6788 17.4953 23.7712 18.9665 24.3359C20.4377 24.9006 21.6965 25.9097 22.5678 27.2228C23.4391 28.5359 23.8796 30.0878 23.8283 31.6629C23.7769 33.2379 23.2361 34.7578 22.281 36.0114C21.326 37.2649 20.0041 38.1897 18.4992 38.6574C16.9943 39.125 15.3811 39.1122 13.8838 38.6207C12.3865 38.1292 11.0796 37.1834 10.1446 35.9149C9.20959 34.6463 8.69302 33.118 8.66668 31.5423C8.39213 28.8816 8.76991 26.194 9.76735 23.712C11.0608 20.449 13.5893 16.8913 18.2 13.4333ZM37.7 13.4333C37.9276 13.2626 38.1867 13.1384 38.4623 13.0678C38.7379 12.9972 39.0248 12.9815 39.3064 13.0218C39.5881 13.062 39.8591 13.1573 40.1039 13.3023C40.3487 13.4473 40.5626 13.639 40.7333 13.8667C40.9041 14.0943 41.0283 14.3533 41.0989 14.6289C41.1695 14.9046 41.1851 15.1914 41.1449 15.4731C41.1047 15.7548 41.0093 16.0257 40.8644 16.2706C40.7194 16.5154 40.5276 16.7293 40.3 16.9C36.9114 19.4415 34.97 21.9137 33.8585 24.0717C35.3847 23.6788 36.9953 23.7712 38.4665 24.3359C39.9377 24.9006 41.1965 25.9097 42.0678 27.2228C42.9391 28.5359 43.3796 30.0878 43.3283 31.6629C43.2769 33.2379 42.7361 34.7578 41.781 36.0114C40.826 37.2649 39.5041 38.1897 37.9992 38.6574C36.4943 39.125 34.8811 39.1122 33.3838 38.6207C31.8865 38.1292 30.5796 37.1834 29.6446 35.9149C28.7096 34.6463 28.193 33.118 28.1667 31.5423C27.8921 28.8816 28.2699 26.194 29.2674 23.712C30.563 20.449 33.0893 16.8913 37.7 13.4333Z" fill="#9E8D7F"/>
</svg>
