<svg width="36" height="30" viewBox="0 0 36 30" fill="none" xmlns="http://www.w3.org/2000/svg">
<g clip-path="url(#clip0_171_755)">
<path d="M34.6705 20.625H33.7815V14.291C33.7815 13.5469 33.4981 12.832 32.9981 12.3047L27.4474 6.45117C26.9474 5.92383 26.2695 5.625 25.5639 5.625H23.1136V2.8125C23.1136 1.25977 21.9191 0 20.4467 0H6.2229C4.75052 0 3.55594 1.25977 3.55594 2.8125V5.625H0.444493C0.200022 5.625 0 5.83594 0 6.09375V7.03125C0 7.28906 0.200022 7.5 0.444493 7.5H15.5573C15.8017 7.5 16.0017 7.71094 16.0017 7.96875V8.90625C16.0017 9.16406 15.8017 9.375 15.5573 9.375H2.22246C1.97799 9.375 1.77797 9.58594 1.77797 9.84375V10.7812C1.77797 11.0391 1.97799 11.25 2.22246 11.25H13.7793C14.0238 11.25 14.2238 11.4609 14.2238 11.7188V12.6562C14.2238 12.9141 14.0238 13.125 13.7793 13.125H0.444493C0.200022 13.125 0 13.3359 0 13.5938V14.5312C0 14.7891 0.200022 15 0.444493 15H12.0013C12.2458 15 12.4458 15.2109 12.4458 15.4688V16.4062C12.4458 16.6641 12.2458 16.875 12.0013 16.875H3.55594V24.375C3.55594 27.4805 5.94509 30 8.88986 30C11.8346 30 14.2238 27.4805 14.2238 24.375H21.3357C21.3357 27.4805 23.7248 30 26.6696 30C29.6143 30 32.0035 27.4805 32.0035 24.375H34.6705C35.1594 24.375 35.5594 23.9531 35.5594 23.4375V21.5625C35.5594 21.0469 35.1594 20.625 34.6705 20.625ZM8.88986 27.1875C7.41748 27.1875 6.2229 25.9277 6.2229 24.375C6.2229 22.8223 7.41748 21.5625 8.88986 21.5625C10.3622 21.5625 11.5568 22.8223 11.5568 24.375C11.5568 25.9277 10.3622 27.1875 8.88986 27.1875ZM26.6696 27.1875C25.1972 27.1875 24.0026 25.9277 24.0026 24.375C24.0026 22.8223 25.1972 21.5625 26.6696 21.5625C28.142 21.5625 29.3365 22.8223 29.3365 24.375C29.3365 25.9277 28.142 27.1875 26.6696 27.1875ZM31.1145 15H23.1136V8.4375H25.5639L31.1145 14.291V15Z" fill="#979088"/>
</g>
<defs>
<clipPath id="clip0_171_755">
<rect width="35.5594" height="30" fill="white"/>
</clipPath>
</defs>
</svg>
