<svg width="260" height="116" viewBox="0 0 260 116" fill="none" xmlns="http://www.w3.org/2000/svg">
<path fill-rule="evenodd" clip-rule="evenodd" d="M0 24C0 10.7452 10.7452 0 24 0H236C246.851 0 256.02 7.20099 258.989 17.0848C256.157 17.5656 254 20.0309 254 23C254 26.3137 256.686 29 260 29V31C256.686 31 254 33.6863 254 37C254 40.3137 256.686 43 260 43V45C256.686 45 254 47.6863 254 51C254 54.3137 256.686 57 260 57V59C256.686 59 254 61.6863 254 65C254 68.3137 256.686 71 260 71V73C256.686 73 254 75.6863 254 79C254 82.3137 256.686 85 260 85V87C256.686 87 254 89.6863 254 93C254 95.9691 256.157 98.4344 258.989 98.9152C256.02 108.799 246.851 116 236 116H24C10.7452 116 0 105.255 0 92V24Z" fill="#313131"/>
</svg>
