<svg width="161" height="116" viewBox="0 0 161 116" fill="none" xmlns="http://www.w3.org/2000/svg">
<path fill-rule="evenodd" clip-rule="evenodd" d="M1.01123 17.0848C3.98016 7.20099 13.1492 0 24 0H137C150.255 0 161 10.7452 161 24V92C161 105.255 150.255 116 137 116H24C13.1492 116 3.98016 108.799 1.01123 98.9152C3.84344 98.4344 6 95.9691 6 93C6 89.6863 3.31372 87 0 87V85C3.31372 85 6 82.3137 6 79C6 75.6863 3.31372 73 0 73V71C3.31372 71 6 68.3137 6 65C6 61.6863 3.31372 59 0 59V57C3.31372 57 6 54.3137 6 51C6 47.6863 3.31372 45 0 45V43C3.31372 43 6 40.3137 6 37C6 33.6863 3.31372 31 0 31V29C3.31372 29 6 26.3137 6 23C6 20.0309 3.84344 17.5656 1.01123 17.0848Z" fill="#313131"/>
</svg>
